<svg width="100%" height="100%" viewBox="0 0 60 60" version="1.1" xmlns="http://www.w3.org/2000/svg" xmlns:xlink="http://www.w3.org/1999/xlink" xml:space="preserve" xmlns:serif="http://www.serif.com/" style="fill-rule:evenodd;clip-rule:evenodd;stroke-linejoin:round;stroke-miterlimit:1.41421;">
    <title>btn-arrow</title>
    <path id="Shape" d="M21,45C18.8,45 17,46.8 17,49C17,51.2 18.8,53 21,53C23.2,53 25,51.2 25,49C25,46.8 23.2,45 21,45ZM9,11L9,15.133L13.2,15.133L20.76,30.84L17.82,35.8C17.61,36.42 17.4,37.247 17.4,37.867C17.4,40.14 19.29,42 21.6,42L46.8,42L46.8,37.867L22.44,37.867C22.23,37.867 22.02,37.66 22.02,37.453L22.02,37.247L23.91,33.733L39.45,33.733C41.13,33.733 42.39,32.907 43.02,31.667L50.58,18.233C51,17.82 51,17.613 51,17.2C51,15.96 50.16,15.133 48.9,15.133L17.82,15.133L15.93,11L9,11ZM42,45C39.8,45 38,46.8 38,49C38,51.2 39.8,53 42,53C44.2,53 46,51.2 46,49C46,46.8 44.2,45 42,45Z" style="fill:white;fill-rule:nonzero;"/>
</svg>
