<?xml version="1.0" encoding="utf-8"?>
<!-- Generator: Adobe Illustrator 22.0.1, SVG Export Plug-In . SVG Version: 6.00 Build 0)  -->
<svg version="1.1" id="Layer_1" xmlns="http://www.w3.org/2000/svg" xmlns:xlink="http://www.w3.org/1999/xlink" x="0px" y="0px"
	 width="292.8px" height="72.8px" viewBox="0 0 292.8 72.8" style="enable-background:new 0 0 292.8 72.8;" xml:space="preserve">
<style type="text/css">
	.st0{fill:#FFFFFF;}
</style>
<g>
	<path class="st0" d="M17.5,15.2c-0.6-0.8-1-1.6-1.7-3.1c-0.9-1.9-1.3-1.3-1,1.6c0.6,6.8-0.2,10.2-4.3,12.8
		c2.1-4.7,0.8-10.5,1.3-17.3c0.2-2.6,1.1-4.9,2.6-6.1c0,0,7.8,9.4,10.4,12.5C22.8,14.3,19.1,14.5,17.5,15.2z M38.8,15.6
		c2.6-3.1,10.4-12.5,10.4-12.5c1.5,1.2,2.5,3.5,2.6,6.1c0.4,6.8-0.8,12.6,1.3,17.3c-4.1-2.6-4.9-6-4.3-12.8c0.2-2.9-0.1-3.5-1-1.6
		c-0.7,1.5-1.1,2.2-1.7,3.1C44.4,14.5,40.7,14.3,38.8,15.6z M54.4,9.5c0.1,2.2,0.1,4.3,0,6.3c-0.2,7.9,1.7,14.2,3.3,14.7
		c-1,0.3-1.9,0.3-2.6,0.2c1.1,0.6,2.3,0.7,3.9,0.7c0,2.2-0.8,4.4-1.6,5.6c0.4,0,1.4-0.4,1.8-0.7c-1.2,5.8-3.9,7.8-11.1,8.9
		c-1.5,0.2-2.7,0.8-3.7,1.8c-1.1,1.1-1.9,2.7-2.4,4.9c-0.9,3.7-1.5,6-2.7,7.7c-1.6,2.4-5.2,3.7-7.6,3.7c-2.3,0-5.9-1.3-7.6-3.7
		c-1.2-1.7-1.8-4.1-2.7-7.7c-0.5-2.1-1.3-3.8-2.4-4.9c-1-1-2.2-1.5-3.7-1.8C8,44.1,5.4,42.1,4.2,36.3C4.6,36.6,5.5,37,6,37
		c-0.8-1.2-1.6-3.4-1.6-5.6c1.7,0,2.8-0.1,3.9-0.7c-0.8,0.1-1.6,0.1-2.6-0.2c1.7-0.5,3.5-6.8,3.4-14.7c0-2-0.1-4.1,0-6.3
		C3.5,15.2,0,23,0,31.7c0,13.2,13,31.1,19.6,32.4c-2.1-2.5-1.5-3.6,1.8-1.8c4.9,2.9,8.3,8.1,7.7,10.4c1.3,0.5,4.7-0.1,8.5-5.6
		c3.4-4.9,4.3-2.1,3.1,0.3c2.5-1.2,5.3-3.5,7-5.9c1-1.5,1.8-1.6,1.2,0.4c7-4.9,14.6-18.9,14.6-30.3C63.5,23,60,15.2,54.4,9.5z
		 M56.1,33.8c-3.1-0.3-5.7-3.5-8.8-6.9c-4.1-4.6-8.8-9.9-15.6-9.9s-11.5,5.3-15.6,9.9c-3,3.4-5.7,6.6-8.8,6.9
		c0.6,2.4,2.7,4.9,6.5,6.4c-1.5,0.5-2.8,0.7-4.7,0.3c0.9,1,3,1.7,6.6,2.2c4.2,0.6,7,3.5,8.2,8.6c1.6,6.5,2,7.6,5.3,9.2
		c-1.5-1.4-2.1-2.8-2.1-4.4c0-0.8,0.9-1.3,4.6-1.3s4.6,0.5,4.6,1.3c0,1.6-0.7,3-2.1,4.4c3.3-1.6,3.8-2.7,5.3-9.2
		c1.2-5.1,4-8,8.2-8.6c3.6-0.5,5.7-1.2,6.6-2.2c-1.9,0.3-3.2,0.2-4.7-0.3C53.5,38.7,55.6,36.2,56.1,33.8z M23.5,33.7
		c-1.9-0.3-3-2.2-2.4-4.5L18,27.1c0.7-0.3,6.1,1.9,7.1,3s1.4,2.4,2.9,4.7C27.3,34.5,25.8,34.1,23.5,33.7z M42.3,29.1
		c0.6,2.4-0.5,4.2-2.4,4.5c-2.2,0.4-3.8,0.8-4.5,1c1.5-2.3,1.9-3.6,2.9-4.7s6.4-3.3,7.1-3L42.3,29.1z M27.6,15.1
		c1.3-0.4,2.7-0.6,4.2-0.6c1.5,0,2.9,0.2,4.2,0.6c2.4-2.9,7.4-8.9,9.8-11.8c-4.2-2.1-9-3.3-14-3.3s-9.8,1.2-14,3.3
		C20.2,6.2,25.1,12.1,27.6,15.1z M212.7,9.3v35.1c0,7.3,4,11.5,11.1,11.5c7,0,11.1-4.2,11.1-11.5V9.3H228v35.6
		c0,3.1-1.4,4.7-4.1,4.7c-2.7,0-4.1-1.6-4.1-4.7V9.3H212.7z M262.1,55.4h6.9V29.6h8.7v-6.4H269v-7.5h12.1l2.4-6.4h-18.6
		c-1.5,0-2.8,1.3-2.8,2.8V55.4z M240.5,9.3v43.2c0,1.5,1.3,2.8,2.8,2.8h15.2v-6.4h-11.1V9.3H240.5z M193.4,30.6l0.2,1.4
		c0.7,6.3,1.9,11.5,5.2,22.4c0.2,0.6,0.7,1,1.3,1h2.6c1.5,0,2.7-1.2,2.8-2.7l2.1-43.4h-6.8c0,3.8-0.1,7.4-0.2,10.9
		c-0.1,4.4-0.2,8.6-0.2,13.2c0,1.2,0,2.5,0.1,3.8c0.1,1.8,0.1,3.7,0.1,5.5h-0.3c-0.7-4.3-1.5-7.7-2.4-11.3c-0.6-2.6-1.3-5.2-1.9-8.2
		h-4.8c-0.6,3-1.3,5.7-1.9,8.2c-0.9,3.6-1.8,7-2.4,11.3h-0.3c0-1.8,0-3.7,0.1-5.5c0-1.4,0.1-2.6,0.1-3.8c0-4.6-0.1-8.8-0.2-13.2
		c-0.1-3.5-0.1-7-0.2-10.8h-6.8l2.1,43.4c0.1,1.5,1.3,2.7,2.8,2.7h2.6c0.6,0,1.1-0.4,1.3-1c3.3-10.9,4.5-16.1,5.2-22.4L193.4,30.6z
		 M159.8,29.6h3.4c3.6,0,4.9,1.6,4.9,5.8v17.2c0,1.5,1.3,2.8,2.8,2.8h4.2V35.1c0-4.5-2-7.9-5.3-9.1l-0.4-0.1l0.4-0.2
		c3.3-1.4,4.5-3.4,4.5-7.5c0-6.4-3-8.9-10.6-8.9h-10.8v46h6.9L159.8,29.6L159.8,29.6z M128,9.3v43.2c0,1.5,1.3,2.8,2.8,2.8h16.8
		v-6.4H135V29.6h8.7v-6.4H135v-7.5h12.6V9.3H128z M103.6,9.3v43.2c0,1.5,1.3,2.8,2.8,2.8h16.8v-6.4h-12.6V29.6h8.7v-6.4h-8.7v-7.5
		h12.6V9.3H103.6z M76.2,55.4h11.2c7.3,0,10.9-3.7,10.9-11.3v-8.9c0-4.5-2-7.9-5.3-9.1L92.6,26l0.4-0.2c3.3-1.4,4.5-3.4,4.5-7.5
		c0-6.4-3-8.9-10.6-8.9H70.4l2.4,6.4h3.4V55.4z M87.4,49h-4.3V29.6h3.4c3.6,0,4.9,1.6,4.9,5.8v8.9C91.3,47.5,90.1,49,87.4,49z
		 M162.8,23.2h-3v-7.5h3.6c2.6,0,3.8,0.5,3.8,3.8C167.3,21.9,165.7,23.2,162.8,23.2z M86.1,23.2h-3v-7.5h3.6c2.6,0,3.8,0.5,3.8,3.8
		C90.5,21.9,89,23.2,86.1,23.2z"/>
	<g>
		<g>
			<path class="st0" d="M289.6,15.7c-1.8,0-3.2-1.4-3.2-3.2s1.4-3.2,3.2-3.2s3.2,1.4,3.2,3.2S291.4,15.7,289.6,15.7z M289.6,10
				c-1.4,0-2.5,1.1-2.5,2.5s1.1,2.5,2.5,2.5s2.5-1.1,2.5-2.5S291,10,289.6,10z"/>
		</g>
		<g>
			<path class="st0" d="M289.4,12.3c0.2,0,0.3,0,0.4-0.1s0.1-0.2,0.1-0.3c0-0.2,0-0.3-0.1-0.3c-0.1-0.1-0.2-0.1-0.4-0.1H289v0.9
				L289.4,12.3 M289.1,12.8v1.3h-0.9v-3.3h1.3c0.4,0,0.8,0.1,1,0.2c0.2,0.1,0.3,0.4,0.3,0.7c0,0.2-0.1,0.4-0.2,0.5s-0.3,0.2-0.5,0.3
				c0.1,0,0.2,0.1,0.3,0.2s0.2,0.2,0.3,0.4l0.5,0.9h-0.9l-0.4-0.8c-0.1-0.2-0.2-0.3-0.2-0.3c-0.1-0.1-0.2-0.1-0.3-0.1L289.1,12.8"/>
		</g>
	</g>
</g>
</svg>
