<svg id="Layer_1" data-name="Layer 1" xmlns="http://www.w3.org/2000/svg" width="609.88" height="187.01" viewBox="0 0 609.88 187.01">
  <title>thuiswinkel-waarborg</title>
  <path d="M250.78,65.23h9.52v7.7h6.86v7.84H260.3V94.91c0,5.46,1.68,6.58,5.39,6.58a16,16,0,0,0,1.75-.07v8.26a19.73,19.73,0,0,1-4.13.35c-8.75,0-12.6-4.9-12.6-14.84V80.77h-3.85V72.93h3.92Z" fill="#1e1e1e"/>
  <path d="M306.16,88.4v21.14h-9.59V87.28c0-4.06-2.8-6.58-6.09-6.58-4.06,0-6.65,2.94-6.65,6.86v22h-9.66V58.93h9.66v18.3A11.28,11.28,0,0,1,293.49,72C303.94,72,306.16,80.63,306.16,88.4Z" fill="#1e1e1e"/>
  <path d="M314.27,94.08V72.93h9.67v22.3c0,4.06,2.8,6.58,6.09,6.58,4,0,6.51-2.94,6.51-6.86V73h9.66v36.61h-9.45v-4.33a11.55,11.55,0,0,1-9.8,5.18C316.51,110.46,314.27,101.85,314.27,94.08Z" fill="#1e1e1e"/>
  <path d="M359.21,58.58a5.49,5.49,0,1,1-.15,0Zm-4.76,14.35h9.66v36.61h-9.66Z" fill="#1e1e1e"/>
  <path d="M370.34,103.67l5.67-5a10.44,10.44,0,0,0,8.4,4c2.73,0,4.48-1.19,4.48-3.29,0-5.6-17.29-3.43-17.29-16.45,0-6.79,5.81-10.85,13.3-10.85,6.93,0,10.78,3.64,12.53,6.51l-6.37,4.76a8.27,8.27,0,0,0-6.58-3.5c-2.24,0-3.78,1.12-3.78,2.94,0,5.81,17.36,3,17.36,16.1,0,7.14-6.16,11.62-14.07,11.62C376.78,110.46,372.3,106.82,370.34,103.67Z" fill="#1e1e1e"/>
  <path d="M429.5,86.09l-6.79,23.45H411.94L401,72.93h10.5l6.44,26,7-26H434l6.93,26,6.51-26h10.46l-11,36.61H436.22Z" fill="#1e1e1e"/>
  <path d="M468,58.58a5.49,5.49,0,1,1-.15,0Zm-4.76,14.35h9.71v36.61h-9.66Z" fill="#1e1e1e"/>
  <path d="M513.49,88.4v21.14h-9.66V87.28c0-4.06-2.8-6.58-6.09-6.58-4,0-6.51,2.94-6.51,6.86v22h-9.66V72.93H491v4.3a11.55,11.55,0,0,1,9.8-5.18C511.25,72,513.49,80.63,513.49,88.4Z" fill="#1e1e1e"/>
  <path d="M521.82,58.93h9.66v29.4l11.76-15.4h10.85l-12.88,16.6,13.86,20H543.73l-12.25-18.9v18.9h-9.66Z" fill="#1e1e1e"/>
  <path d="M576.07,72c11.34,0,17.78,7.56,17.78,19.53,0,.7,0,1.4-.07,2.1H568c.21,4.9,4.13,8.4,9.52,8.4a10.69,10.69,0,0,0,8.89-4.48l6.37,4.83c-1.4,2.59-6.3,8.05-15.4,8.05-11.76,0-19.25-8.12-19.25-19.11S565.64,72,576.07,72Zm8,15.33a7.48,7.48,0,0,0-7.53-7.43h-.31c-4.55,0-7.49,3.22-7.91,7.42Z" fill="#1e1e1e"/>
  <path d="M600.22,58.93h9.66v50.61h-9.66Z" fill="#1e1e1e"/>
  <path d="M272.61,147.7l-9,26.85h-5.67l-11.37-33.8h5.59l8.78,27.82s.06-.13,9.1-27.82h5.07c9,27.69,9,27.82,9,27.82L293,140.75h5.59l-11.44,33.8h-5.66Z" fill="#1e1e1e"/>
  <path d="M315.32,153c4.29,0,7.54,1.63,8.91,3.05v-4.15c0-4.75-3.19-7.47-8.19-7.47a19.38,19.38,0,0,0-10,2.92L304,143.61a23.82,23.82,0,0,1,12.48-3.71c9.23,0,12.87,5.14,12.87,12.35v22.3h-4.42l-.59-2.86c-1.75,2-4.61,3.71-9.17,3.71-7.41,0-12.87-4.68-12.87-11.25S307.71,153,315.32,153ZM316,171.1c4.94,0,8.38-2.92,8.38-7s-3.38-7-8.45-7-8.45,3-8.45,7S310.83,171.1,316,171.1Z" fill="#1e1e1e"/>
  <path d="M349.38,153c4.29,0,7.54,1.63,8.9,3.05v-4.15c0-4.75-3.19-7.47-8.19-7.47a19.38,19.38,0,0,0-10,2.92l-2.08-3.77a23.82,23.82,0,0,1,12.48-3.71c9.23,0,12.87,5.14,12.87,12.35v22.3H359l-.58-2.86c-1.76,2-4.62,3.71-9.17,3.71-7.41,0-12.87-4.68-12.87-11.25S341.77,153,349.38,153Zm.71,18.07c4.94,0,8.38-2.92,8.38-7s-3.38-7-8.45-7-8.45,3-8.45,7S344.94,171.1,350.09,171.1Z" fill="#1e1e1e"/>
  <path d="M387.79,145c-7.74,0-10,6.11-10,13.33v16.19h-5.14v-33.8h5.07v5.66c1.17-3.38,4.94-6.5,10.08-6.5Z" fill="#1e1e1e"/>
  <path d="M394.49,127.55h5.14v18.68a14,14,0,0,1,12-6.31c9.56,0,16.12,7.41,16.12,17.81s-6.89,17.68-16.51,17.68a14,14,0,0,1-11.81-6.18v5.33h-4.94Zm16.38,43.23c6.5,0,11.57-5.13,11.57-13s-4.81-13.2-11.44-13.2c-6.37,0-11.57,4.81-11.57,13.2C399.43,164.86,403.85,170.78,410.87,170.78Z" fill="#1e1e1e"/>
  <path d="M450.58,139.9c10.21,0,17.62,7.61,17.62,17.75a17.28,17.28,0,0,1-16.8,17.75h-.88c-10.14,0-17.62-7.47-17.62-17.75a17.28,17.28,0,0,1,16.8-17.75Zm-.07,30.81c7.28,0,12.48-5.53,12.48-13.07s-5.2-13.07-12.48-13.07-12.35,5.66-12.35,13.07c0,7.59,5.14,13.07,12.36,13.07Z" fill="#1e1e1e"/>
  <path d="M490.82,145c-7.73,0-10,6.11-10,13.33v16.19h-5.13v-33.8h5.07v5.66c1.17-3.38,4.94-6.5,10.07-6.5Z" fill="#1e1e1e"/>
  <path d="M501.15,179.62a21.18,21.18,0,0,0,10.21,2.79c6.44,0,11.89-2.67,11.89-10.21v-3a13.61,13.61,0,0,1-11.7,6.17c-9.69,0-16.32-7.34-16.32-17.68s6.7-17.81,16.25-17.81a14,14,0,0,1,12,6.31v-5.46h4.94v29.12c0,12.81-7.21,17.16-17,17.16a24.69,24.69,0,0,1-12.09-3.38Zm10.72-35c-6.56,0-11.44,5.39-11.44,13.13s5.07,13,11.57,13c7,0,11.44-5.72,11.44-13,0-8.23-5.13-13.17-11.56-13.17Z" fill="#1e1e1e"/>
  <path d="M101.05,0,0,58.34v117H202.1v-117Zm90.26,164.51H106.44V119.8l84.86-49Zm-95.65,0H10.79V70.8l84.86,49Zm5.4-54.06-84.86-49,84.86-49,84.86,49Z" fill="#1e1e1e"/>
  <polygon points="191.31 70.8 106.45 119.8 106.45 164.51 191.31 164.51 191.31 70.8" fill="#bdea18"/>
  <polygon points="10.79 164.51 95.66 164.51 95.66 119.8 10.79 70.8 10.79 164.51" fill="#fc3f4d"/>
  <polygon points="16.19 61.46 101.05 110.45 185.91 61.46 101.05 12.46 16.19 61.46" fill="#fff"/>
</svg>
