<svg xmlns="http://www.w3.org/2000/svg" width="164" height="131" viewBox="0 0 164 131">
  <g fill="none" fill-rule="evenodd">
    <path fill="#00447C" d="M42.3900812 36.9982152L49.8386874 36.9982152C49.9184059 37.3636382 49.9534337 37.7290612 49.9534337 38.1123098 49.9534337 38.5129021 49.9184059 38.8915738 49.8386874 39.2613327L45.0570272 39.2613327 45.0570272 42.1011297 48.8540432 42.1011297C48.9291718 42.4884732 48.9644412 42.8671449 48.9644412 43.232568 48.9644412 43.6201524 48.9291718 43.9988241 48.8540432 44.3815909L45.0570272 44.3815909 45.0570272 47.8334774 49.97131 47.8334774C50.0505453 48.1989004 50.081708 48.5729953 50.081708 48.9470902 50.081708 49.3479234 50.0505453 49.735267 49.97131 50.0920181L42.3900812 50.0920181 42.3900812 36.9982152zM61.587744 47.6178851C61.7512877 47.9611466 61.8839103 48.3092259 61.9853702 48.6657362 62.0865885 49.0224873 62.1619588 49.3879103 62.2146213 49.7487565 61.5790475 49.9819335 61.0094226 50.136341 60.5062298 50.2023436 59.9984471 50.2815948 59.4551535 50.3124282 58.8724838 50.3124282 57.8259974 50.3124282 56.92542 50.1450129 56.1526337 49.8147591 55.3668026 49.4847462 54.713111 49.0092386 54.1879352 48.4103977 53.6535797 47.8072209 53.2518468 47.0982955 52.9911915 46.2706135 52.7177329 45.4516035 52.5851103 44.5492471 52.5851103 43.5760704 52.5851103 42.6031346 52.7264295 41.7051142 53.0090678 40.8682786 53.2827679 40.0405967 53.6890907 39.3229994 54.2232046 38.7109098 54.7486219 38.103397 55.402072 37.6322254 56.1702684 37.2889638 56.9519928 36.9500381 57.8259974 36.7826229 58.8149899 36.7826229 59.3981427 36.7826229 59.9366049 36.818033 60.4265113 36.8883715 60.9255974 36.963046 61.4597113 37.1128766 62.0295777 37.3460536 62.0027633 37.7071407 61.9324661 38.0636509 61.81313 38.4071534 61.6940354 38.7595686 61.5570645 39.107407 61.4068072 39.4595813 60.9830913 39.3140866 60.5987516 39.2129148 60.2764956 39.1469122 59.945543 39.0854864 59.556855 39.0587482 59.1065663 39.0587482 57.9407437 39.0587482 57.0401663 39.4330839 56.413289 40.1990992 55.7861702 40.9564427 55.4682625 42.083545 55.4682625 43.5760704 55.4682625 46.5392006 56.735545 48.0187182 59.2522337 48.0187182 59.7025224 48.0187182 60.1001486 47.9878849 60.4400393 47.9305542 60.77993 47.8643107 61.168618 47.7674748 61.587744 47.6178851M70.0917748 48.0933927C71.977238 48.0933927 72.9263712 46.5919545 72.9263712 43.5760704 72.9263712 42.0705372 72.6971201 40.938858 72.2422416 40.1901865 71.787363 39.4330839 71.0761774 39.0587482 70.1137578 39.0587482 68.2017218 39.0587482 67.243892 40.5645223 67.243892 43.5760704 67.243892 46.5919545 68.1932668 48.0933927 70.0917748 48.0933927M70.0917748 50.3121873C69.1073722 50.3121873 68.2548674 50.1406769 67.530637 49.8060872 66.8199345 49.4669207 66.2239784 48.9959899 65.7601617 48.3971491 65.3011764 47.7896363 64.9569375 47.0850468 64.7315516 46.2617008 64.5107555 45.4429316 64.3873126 44.5492471 64.3873126 43.5760704 64.3873126 42.6031346 64.5107555 41.7048733 64.7315516 40.8682786 64.9569375 40.0405967 65.3011764 39.3229994 65.7601617 38.7109098 66.2239784 38.103397 66.8199345 37.6322254 67.530637 37.2887229 68.2548674 36.9500381 69.1073722 36.7826229 70.0917748 36.7826229 71.0761774 36.7826229 71.9330304 36.9500381 72.6483227 37.2887229 73.3723116 37.6322254 73.9595712 38.103397 74.418798 38.7109098 74.8867214 39.3229994 75.2309604 40.0405967 75.4517565 40.8682786 75.6812491 41.7048733 75.7918887 42.6031346 75.7918887 43.5760704 75.7918887 44.5492471 75.6812491 45.4429316 75.4517565 46.2617008 75.2309604 47.0850468 74.8867214 47.7896363 74.418798 48.3971491 73.9595712 48.9959899 73.3723116 49.4669207 72.6483227 49.8060872 71.9330304 50.1406769 71.0761774 50.3121873 70.0917748 50.3121873M79.4256026 36.9982152C79.9159921 36.9232999 80.3793257 36.8881306 80.8342043 36.8881306 81.3108242 36.8881306 81.7751241 36.9232999 82.2428059 36.9982152L85.2583391 44.5051651 88.3576975 36.9982152C88.7372059 36.9232999 89.1618881 36.8881306 89.6206318 36.8881306 90.079617 36.8881306 90.5301473 36.9232999 90.9538632 36.9982152L91.5722854 50.0920181C91.104362 50.1715103 90.6806462 50.2021027 90.2562056 50.2021027 89.8414278 50.2021027 89.4348635 50.1715103 89.0382036 50.0920181L88.7111162 41.2074452 86.0444118 47.3666417C85.8678232 47.3931391 85.6912347 47.4107237 85.5054664 47.4283083 85.3286363 47.4461338 85.1474579 47.4548057 84.962656 47.4548057 84.803219 47.4548057 84.6445067 47.4504698 84.4857944 47.4372211 84.3307057 47.4239724 84.1676452 47.397475 83.9954049 47.3666417L81.5101205 41.0797759 81.2538134 50.0920181C80.8605355 50.1715103 80.4897237 50.2021027 80.1189119 50.2021027 79.7348137 50.2021027 79.3325977 50.1715103 78.9134717 50.0920181L79.4256026 36.9982152zM95.5280137 36.9982152C96.0229931 36.9232999 96.4817368 36.8881306 96.9416884 36.8881306 97.4185499 36.8881306 97.8775352 36.9232999 98.345217 36.9982152L101.357127 44.5051651 104.465423 36.9982152C104.84469 36.9232999 105.259468 36.8881306 105.727391 36.8881306 106.187101 36.8881306 106.628935 36.9232999 107.061589 36.9982152L107.679045 50.0920181C107.211121 50.1715103 106.778467 50.2021027 106.36369 50.2021027 105.957367 50.2021027 105.542589 50.1715103 105.145205 50.0920181L104.809662 41.2074452 102.142233 47.3666417C101.974583 47.3931391 101.797753 47.4107237 101.612951 47.4283083 101.427424 47.4461338 101.250594 47.4548057 101.065067 47.4548057 100.906355 47.4548057 100.747643 47.4504698 100.587964 47.4372211 100.429493 47.4239724 100.270781 47.397475 100.102889 47.3666417L97.61229 41.0797759 97.3562245 50.0920181C96.9677781 50.1715103 96.5972079 50.2021027 96.2259129 50.2021027 95.8282867 50.2021027 95.4318684 50.1715103 95.0161244 50.0920181L95.5280137 36.9982152zM111.300197 36.9982152L118.75291 36.9982152C118.824173 37.3636382 118.859201 37.7290612 118.859201 38.1123098 118.859201 38.5129021 118.824173 38.8915738 118.75291 39.2613327L113.966901 39.2613327 113.966901 42.1011297 117.763918 42.1011297C117.834215 42.4884732 117.870209 42.8671449 117.870209 43.232568 117.870209 43.6201524 117.834215 43.9988241 117.763918 44.3815909L113.966901 44.3815909 113.966901 47.8334774 118.876111 47.8334774C118.955588 48.1989004 118.991824 48.5729953 118.991824 48.9470902 118.991824 49.3479234 118.955588 49.735267 118.876111 50.0920181L111.300197 50.0920181 111.300197 36.9982152zM122.23226 36.9982152C122.770481 36.9365486 123.274156 36.8881306 123.742321 36.8483845 124.210245 36.8002075 124.731314 36.782382 125.305529 36.782382 125.97613 36.782382 126.638518 36.8442895 127.283272 36.963046 127.936722 37.0863792 128.51915 37.3019716 129.049399 37.6146407 129.570227 37.9183971 129.993942 38.3368149 130.32103 38.8650764 130.638454 39.3933379 130.806105 40.0668532 130.806105 40.8815273 130.806105 41.3657068 130.744746 41.7927965 130.621544 42.1625554 130.497135 42.5325553 130.347361 42.862809 130.152655 43.1357321 129.967611 43.4175679 129.764208 43.6553217 129.544137 43.8579062 129.323341 44.0556731 129.111483 44.2187524 128.925715 44.3334138L128.607565 44.5400934 131.804035 50.0787694C131.55715 50.1052668 131.310022 50.1271874 131.045019 50.1536847 130.771077 50.1756053 130.497135 50.188854 130.223918 50.188854 129.755995 50.188854 129.296285 50.1536847 128.846479 50.0787694L125.410854 43.9942473 125.852446 43.7738373C126.020338 43.6948269 126.223258 43.5847423 126.47111 43.4484012 126.717995 43.3115784 126.947971 43.1489808 127.176981 42.9461553 127.406715 42.7438117 127.592242 42.5060579 127.751195 42.2155502 127.909666 41.9337144 127.989143 41.5947887 127.989143 41.2074452 127.989143 40.441189 127.769072 39.8777582 127.336418 39.5255839 126.894826 39.1601609 126.329549 38.9838328 125.63165 38.9838328 125.366888 38.9838328 125.11976 39.0014175 124.898723 39.0454995L124.898723 50.0920181C124.686865 50.1228514 124.466069 50.1406769 124.236335 50.1580207 124.024477 50.1756053 123.812619 50.188854 123.600761 50.188854 123.397841 50.188854 123.177045 50.1845181 122.947069 50.1715103 122.717335 50.1580207 122.479146 50.1361001 122.23226 50.0920181L122.23226 36.9982152zM142.798665 47.6178851C142.957136 47.9611466 143.089758 48.3092259 143.196291 48.6657362 143.301616 49.0224873 143.37288 49.3879103 143.425059 49.7487565 142.789485 49.9819335 142.224209 50.136341 141.712319 50.2023436 141.209368 50.2815948 140.661002 50.3124282 140.078815 50.3124282 139.045857 50.3124282 138.1361 50.1450129 137.358965 49.8147591 136.582072 49.4847462 135.928622 49.0092386 135.389435 48.4103977 134.868366 47.8072209 134.462526 47.0982955 134.206702 46.2706135 133.923581 45.4516035 133.800138 44.5492471 133.800138 43.5760704 133.800138 42.6031346 133.932519 41.7051142 134.214674 40.8682786 134.497796 40.0405967 134.90436 39.3229994 135.424704 38.7109098 135.954712 38.103397 136.6171 37.6322254 137.385296 37.2889638 138.162431 36.9500381 139.036677 36.7826229 140.025669 36.7826229 140.609064 36.7826229 141.155981 36.818033 141.642022 36.8883715 142.127097 36.963046 142.666043 37.1128766 143.240257 37.3460536 143.213201 37.7071407 143.142904 38.0636509 143.019461 38.4071534 142.895777 38.7595686 142.763396 39.107407 142.622077 39.4595813 142.198361 39.3140866 141.818611 39.2129148 141.482585 39.1469122 141.164919 39.0854864 140.767535 39.0587482 140.325942 39.0587482 139.151182 39.0587482 138.241666 39.4330839 137.623969 40.1990992 136.996608 40.9564427 136.687397 42.083545 136.687397 43.5760704 136.687397 46.5392006 137.950573 48.0187182 140.467503 48.0187182 140.909095 48.0187182 141.305755 47.9878849 141.649994 47.9305542 141.995441 47.8643107 142.374949 47.7674748 142.798665 47.6178851M146.436969 36.9982152L153.889682 36.9982152C153.960945 37.3636382 154.004911 37.7290612 154.004911 38.1123098 154.004911 38.5129021 153.960945 38.8915738 153.889682 39.2613327L149.103673 39.2613327 149.103673 42.1011297 152.900689 42.1011297C152.979925 42.4884732 153.006981 42.8671449 153.006981 43.232568 153.006981 43.6201524 152.979925 43.9988241 152.900689 44.3815909L149.103673 44.3815909 149.103673 47.8334774 154.022063 47.8334774C154.093085 48.1989004 154.128354 48.5729953 154.128354 48.9470902 154.128354 49.3479234 154.093085 49.735267 154.022063 50.0920181L146.436969 50.0920181 146.436969 36.9982152zM42.7215169 55.5471069L49.9403889 55.5471069C49.97131 55.7935326 49.9935345 56.0580246 49.9935345 56.3485323 49.9935345 56.4848734 49.9889447 56.6257913 49.9800065 56.771286 49.9756583 56.916299 49.9626134 57.048545 49.9403889 57.1716374L44.5758173 57.1716374 44.5758173 60.9227035 48.8542848 60.9227035C48.8852059 61.0462777 48.8982507 61.173706 48.9117787 61.3146239 48.9250651 61.4555418 48.9291718 61.5921238 48.9291718 61.7243698 48.9291718 61.86047 48.9250651 61.9972929 48.9117787 62.1468827 48.8982507 62.2878006 48.8852059 62.4241416 48.8542848 62.5477158L44.5758173 62.5477158 44.5758173 67.025292 50.081708 67.025292C50.1169774 67.2671408 50.1348537 67.5359689 50.1348537 67.8264765 50.1348537 67.9582408 50.1348537 68.0993996 50.125674 68.2446534 50.1213257 68.3944841 50.1082809 68.5219124 50.081708 68.6498225L42.7215169 68.6498225 42.7215169 55.5471069zM53.3755313 55.5471069C53.6712144 55.5119376 53.9847738 55.494353 54.3249061 55.494353 54.6604484 55.494353 54.9604799 55.5119376 55.2385283 55.5471069L55.2385283 62.9834773C55.2385283 63.7362439 55.291674 64.3791668 55.3887856 64.9117643 55.4858972 65.4446026 55.6405028 65.8847 55.8656471 66.2149538 56.0820949 66.5497844 56.3734298 66.7959692 56.7309552 66.9503767 57.0887221 67.113456 57.5346625 67.1878896 58.0557316 67.1878896 58.5811489 67.1878896 59.0183928 67.113456 59.3715699 66.9503767 59.724747 66.7959692 60.0071437 66.5497844 60.2281813 66.2149538 60.4487358 65.8847 60.6033414 65.4446026 60.7050429 64.9117643 60.8021545 64.3791668 60.8504687 63.7362439 60.8504687 62.9834773L60.8504687 55.5471069C61.1509833 55.5119376 61.4643011 55.494353 61.7819673 55.494353 62.1177512 55.494353 62.4400072 55.5119376 62.7315836 55.5471069L62.7315836 63.3091543C62.7315836 64.1809182 62.6518651 64.9645181 62.4842147 65.655859 62.3211542 66.3517767 62.0515607 66.932792 61.6850972 67.4082996 61.3055889 67.8792304 60.8284858 68.2400766 60.2281813 68.49132 59.6319836 68.7420816 58.9121015 68.8654149 58.0557316 68.8654149 57.1991201 68.8654149 56.4794795 68.7420816 55.8835234 68.49132 55.2829774 68.2400766 54.8017676 67.8792304 54.426366 67.4082996 54.0599025 66.932792 53.790309 66.3517767 53.6270069 65.655859 53.4593565 64.9645181 53.3755313 64.1809182 53.3755313 63.3091543L53.3755313 55.5471069zM66.9788884 55.5338582C67.2484818 55.5030249 67.4910193 55.4854402 67.7072255 55.4548478 67.9282632 55.4326864 68.1444694 55.4148608 68.3563273 55.3929403 68.5681853 55.3710197 68.7935712 55.362107 69.0228223 55.3488583 69.2614946 55.3358505 69.5134534 55.3358505 69.7915018 55.3358505 70.4140308 55.3358505 71.0278632 55.3929403 71.6373473 55.5119376 72.2461067 55.6352709 72.7848105 55.8421914 73.261672 56.1548605 73.7385336 56.4497041 74.1272216 56.8635451 74.427253 57.3831347 74.7234193 57.8981475 74.8736766 58.5454064 74.8736766 59.337919 74.8736766 59.8134266 74.7937165 60.2448522 74.630656 60.6324367 74.4714606 61.0197803 74.2685408 61.3676187 74.0257617 61.6713751 73.7919208 61.9753723 73.5136308 62.2393826 73.1998298 62.4684645 72.8913434 62.6883928 72.5864805 62.8690568 72.2992524 63.0186466L72.0784563 63.1287312 75.8935902 68.6498225C75.5667444 68.680415 75.1913427 68.7025764 74.7806717 68.7025764 74.4538259 68.7025764 74.1231149 68.680415 73.7919208 68.6498225L69.5926887 62.5785491 69.5926887 62.5036338 69.7383561 62.4725596C70.0649604 62.3846365 70.4140308 62.2699751 70.7804943 62.1290571 71.1467162 61.9794674 71.4827417 61.7903724 71.795818 61.5526186 72.1050291 61.3148648 72.3610946 61.0284522 72.5686043 60.6895265 72.7763555 60.3636087 72.8821637 59.9630164 72.8821637 59.4834138 72.8821637 58.6027371 72.6217499 57.9598142 72.1050291 57.5327245 71.5839601 57.1056348 70.8863025 56.8943784 70.0079496 56.8943784 69.8045466 56.8943784 69.6103234 56.9076271 69.4337349 56.916299 69.2614946 56.9252118 69.0631646 56.9430373 68.8467169 56.9690529L68.8467169 68.6498225C68.709746 68.6587353 68.5594887 68.6717431 68.395945 68.680415 68.2328845 68.6982405 68.073689 68.7025764 67.9282632 68.7025764 67.7825957 68.7025764 67.6279902 68.6982405 67.4557499 68.6936637 67.2835097 68.680415 67.1245558 68.6717431 66.9788884 68.6498225L66.9788884 55.5338582zM83.7654291 67.2628049C84.3749133 67.2628049 84.9049205 67.1440485 85.3467542 66.9108715 85.7883463 66.6731177 86.1589165 66.3250384 86.4500098 65.8760282 86.7420694 65.4315948 86.9628655 64.8855078 87.1126396 64.2558336 87.2542003 63.6307362 87.3336773 62.908562 87.3336773 62.1071366 87.3336773 61.3192007 87.2542003 60.6059393 87.1126396 59.9675932 86.9628655 59.3290063 86.7420694 58.7831602 86.4500098 58.3471577 86.1589165 57.9027243 85.7883463 57.554886 85.3467542 57.3212272 84.9049205 57.092627 84.3749133 56.9692938 83.7654291 56.9692938 83.1569113 56.9692938 82.6269041 57.092627 82.1899018 57.3212272 81.7434782 57.554886 81.3731496 57.9027243 81.0856799 58.3471577 80.7854069 58.7831602 80.5692007 59.3290063 80.4235332 59.9675932 80.2735175 60.6059393 80.2027372 61.3192007 80.2027372 62.1071366 80.2027372 62.908562 80.2735175 63.6307362 80.4235332 64.2558336 80.5692007 64.8855078 80.7854069 65.4315948 81.0856799 65.8760282 81.3731496 66.3250384 81.7434782 66.6731177 82.1899018 66.9108715 82.6269041 67.1440485 83.1569113 67.2628049 83.7654291 67.2628049M83.7654291 68.8654149C82.8162959 68.8654149 81.9913303 68.6982405 81.2982625 68.3638917 80.6047116 68.0290611 80.0261486 67.5619845 79.57127 66.9588076 79.1168746 66.3645436 78.7765008 65.647428 78.551598 64.8238411 78.3262121 63.9959183 78.2158141 63.0935619 78.2158141 62.1071366 78.2158141 61.1209521 78.3262121 60.2185957 78.551598 59.3952497 78.7765008 58.5675678 79.1168746 57.8540655 79.57127 57.2508887 80.0261486 56.6522887 80.6047116 56.177022 81.2982625 55.8421914 81.9913303 55.5030249 82.8162959 55.3358505 83.7654291 55.3358505 84.7148039 55.3358505 85.5404943 55.5030249 86.2292137 55.8421914 86.9271129 56.177022 87.5013277 56.6522887 87.9600714 57.2508887 88.4200229 57.8540655 88.7550822 58.5675678 88.9669401 59.3952497 89.1877362 60.2185957 89.3024825 61.1209521 89.3024825 62.1071366 89.3024825 63.0935619 89.1877362 63.9959183 88.9669401 64.8238411 88.7550822 65.647428 88.4200229 66.3645436 87.9600714 66.9588076 87.5013277 67.5619845 86.9271129 68.0290611 86.2292137 68.3638917 85.5404943 68.6982405 84.7148039 68.8654149 83.7654291 68.8654149M94.980855 62.2878006C95.1755614 62.3140571 95.3511836 62.3318826 95.4927444 62.3448904 95.6434848 62.3581391 95.8553427 62.3627159 96.1374979 62.3627159 96.5087928 62.3627159 96.8883011 62.3275466 97.2588714 62.2437186 97.6304079 62.1644673 97.9654671 62.0235494 98.2476223 61.812293 98.5491031 61.6099493 98.777871 61.3281135 98.9544596 60.9670264 99.1312897 60.6102753 99.2197047 60.1436804 99.2197047 59.5713369 99.2197047 59.0825806 99.149166 58.6598269 98.989729 58.3209012 98.8310167 57.9773988 98.6283385 57.7044757 98.3630933 57.5018912 98.0980897 57.2906348 97.7710023 57.1453809 97.3914939 57.0617937 97.0206822 56.9736297 96.6054213 56.9338836 96.1727673 56.9338836 95.7227201 56.9338836 95.3253355 56.9517091 94.980855 56.9866375L94.980855 62.2878006zM93.1173748 55.5338582C93.3033846 55.5030249 93.5152426 55.4854402 93.7710664 55.4548478 94.0181938 55.4326864 94.2829558 55.4148608 94.5571391 55.3929403 94.8313224 55.3710197 95.0953597 55.362107 95.3784812 55.3488583 95.6434848 55.3358505 95.9164602 55.3358505 96.1727673 55.3358505 96.8443352 55.3358505 97.479909 55.3975171 98.0799718 55.5338582 98.6802763 55.6661042 99.210525 55.8949453 99.670235 56.225199 100.12922 56.5511169 100.491577 56.9825425 100.755614 57.5283886 101.020618 58.0698988 101.153241 58.7434141 101.153241 59.5580882 101.153241 60.4033548 101.003708 61.1166162 100.729525 61.6802878 100.438431 62.2437186 100.067136 62.7016415 99.5989715 63.0362312 99.1223516 63.3753977 98.5921028 63.6129107 98.0007365 63.7538286 97.3914939 63.8990824 96.7998861 63.9696618 96.1727673 63.9696618 95.9435162 63.9696618 95.7316583 63.9607491 95.5550697 63.9520772 95.3784812 63.9477412 95.1837748 63.9344926 94.980855 63.9123311L94.980855 68.6498225C94.6897617 68.680415 94.3805506 68.7025764 94.0450082 68.7025764 93.9034475 68.7025764 93.7449768 68.6982405 93.5855398 68.6936637 93.4176478 68.680415 93.2678736 68.6715022 93.1173748 68.6498225L93.1173748 55.5338582zM104.491271 55.5471069L111.705795 55.5471069C111.741064 55.7935326 111.758941 56.0580246 111.758941 56.3485323 111.758941 56.4848734 111.758941 56.6257913 111.750003 56.771286 111.741064 56.916299 111.733093 57.048545 111.705795 57.1716374L106.354752 57.1716374 106.354752 60.9227035 110.628629 60.9227035C110.646505 61.0462777 110.672837 61.173706 110.681775 61.3146239 110.690713 61.4555418 110.698926 61.5921238 110.698926 61.7243698 110.698926 61.86047 110.690713 61.9972929 110.681775 62.1468827 110.672837 62.2878006 110.646505 62.4241416 110.628629 62.5477158L106.354752 62.5477158 106.354752 67.025292 111.856294 67.025292C111.891563 67.2671408 111.908715 67.5359689 111.908715 67.8264765 111.908715 67.9582408 111.908715 68.0993996 111.900501 68.2446534 111.891563 68.3944841 111.873687 68.5219124 111.856294 68.6498225L104.491271 68.6498225 104.491271 55.5471069zM70.6524615 112.620305L62.7538082 112.717141 69.0853892 117.225309 66.7406992 124.437415 73.1916164 120.069442 79.6420504 124.437415 77.2886638 117.225309 83.6248347 112.717141 75.7254566 112.620305 73.1916164 105.461193 70.6524615 112.620305zM119.21262 85.8514427L111.317349 85.9482786 117.649413 90.4653599 115.299891 97.6774662 121.75564 93.3097337 128.201967 97.6774662 125.852687 90.4653599 132.183785 85.9482786 124.28948 85.8514427 121.75564 78.7012439 119.21262 85.8514427zM21.6690704 85.8514427L13.7701755 85.9482786 20.1017565 90.4653599 17.7570664 97.6774662 24.2036354 93.3097337 30.654311 97.6774662 28.3098625 90.4653599 34.641202 85.9482786 26.7377172 85.8514427 24.2036354 78.7012439 21.6690704 85.8514427zM98.6452484 105.514188L90.7420052 105.611265 97.0820412 110.128346 94.7247895 117.339971 101.180297 112.981633 107.626865 117.339971 105.286524 110.128346 111.617622 105.611265 103.714137 105.514188 101.180297 98.3642302 98.6452484 105.514188zM42.4475751 105.514188L34.5486802 105.611265 40.8843679 110.128346 38.5312229 117.339971 44.9862468 112.981633 51.4328157 117.339971 49.0881257 110.128346 55.424055 105.611265 47.5205702 105.514188 44.9862468 98.3642302 42.4475751 105.514188zM49.0881257 17.0890442L55.424055 12.5760579 47.5205702 12.4837988 44.9862468 5.33360008 42.4475751 12.4837988 34.5486802 12.5760579 40.8843679 17.0890442 38.5312229 24.3052455 44.9862468 19.9420898 51.4328157 24.3052455 49.0881257 17.0890442zM21.6690704 32.1463033L13.7701755 32.24338 20.1017565 36.7563664 17.7570664 43.963414 24.2036354 39.6045943 30.654311 43.963414 28.3098625 36.7563664 34.641202 32.24338 26.7377172 32.1463033 24.2036354 24.9920095 21.6690704 32.1463033zM16.9978082 52.1482151L19.5321316 59.3070857 27.4356164 59.3995857 21.0953388 63.9212439 23.4487254 71.1244373 16.9978082 66.7610408 10.5471326 71.1244373 12.8959293 63.9212439 6.56 59.3995857 14.4591365 59.3070857 16.9978082 52.1482151zM97.323854 25.3119052L96.131217 25.3119052C96.131217 25.1160654 96.1461944 24.9276931 96.175183 24.7465474 96.2046547 24.5656425 96.2590082 24.3673939 96.3375188 24.1518015L97.51542 24.1518015C97.5644589 23.8974266 97.6084249 23.6379932 97.6480426 23.373742 97.6869355 23.1092499 97.7072275 22.8353633 97.7072275 22.5511186L97.7072275 22.3162555C97.9029002 22.2186969 98.1384321 22.1452269 98.4138232 22.0958454 98.6882481 22.0471866 98.9240216 22.0226163 99.120419 22.0226163 99.130565 22.1105394 99.137329 22.1989443 99.1428851 22.2868674 99.1477165 22.3750315 99.1498907 22.4682541 99.1498907 22.5658126 99.1498907 22.869569 99.1105146 23.2465545 99.0324871 23.6965283L98.9438304 24.1518015 100.843788 24.1518015C100.843788 24.3673939 100.829052 24.5656425 100.79958 24.7465474 100.770109 24.9276931 100.72107 25.1160654 100.65198 25.3119052L98.7674835 25.3119052 98.1930272 28.498577C98.1437466 28.7238047 98.0997807 28.9562591 98.060163 29.19594 98.02127 29.4358617 98.0012196 29.6536221 98.0012196 29.8494618 98.0012196 30.143101 98.077073 30.3464082 98.2295044 30.4589016 98.3819358 30.5713951 98.5855804 30.6277623 98.8406795 30.6277623 99.0076052 30.6277623 99.1600367 30.6154771 99.2974907 30.5911477 99.4347031 30.5665774 99.5719155 30.5350214 99.7096111 30.4955162 99.7390828 30.5935565 99.7632399 30.7012323 99.7835319 30.8185434 99.8028576 30.9360955 99.8130036 31.0635238 99.8130036 31.2003466L99.8130036 31.4132893C99.8130036 31.4867593 99.8074475 31.5626381 99.7980262 31.6409259 99.6704766 31.6801902 99.5035509 31.7165639 99.2974907 31.7510105 99.0911889 31.7852162 98.8699097 31.802319 98.6346193 31.802319 98.3203352 31.802319 98.0333486 31.7806394 97.7731764 31.7363165 97.5127627 31.6922344 97.2895509 31.609129 97.1030579 31.4867593 96.916565 31.3643895 96.7718638 31.1981787 96.6684714 30.9876449 96.5653205 30.7771111 96.5136242 30.5005748 96.5136242 30.157795 96.5136242 29.9718315 96.5310173 29.7735829 96.5653205 29.5630492 96.6003483 29.3527563 96.636584 29.134996 96.6762016 28.9095273L97.323854 25.3119052zM102.256979 31.6850079C102.364962 31.0683415 102.485264 30.4172285 102.617645 29.7321507 102.750509 29.046832 102.872986 28.3834338 102.986283 27.742438 103.098613 27.1012013 103.194517 26.5139229 103.272786 25.980121 103.351297 25.446801 103.391156 25.0233246 103.391156 24.7099328 103.391156 24.5827454 103.388982 24.4825371 103.383667 24.4088262 103.378836 24.335597 103.366274 24.245265 103.346949 24.1373484 103.454931 24.1175958 103.572818 24.1055515 103.700609 24.1007338 103.828158 24.0959161 103.94532 24.0932664 104.053786 24.0932664 104.151864 24.0932664 104.262262 24.0959161 104.385222 24.1007338 104.507698 24.1055515 104.618096 24.1175958 104.716657 24.1373484 104.735983 24.215877 104.750719 24.3013913 104.760865 24.3941322 104.770045 24.4873548 104.775601 24.617192 104.775601 24.7834028 104.775601 25.0086306 104.760865 25.2290406 104.731152 25.4441512 104.858943 25.2678232 104.998812 25.1013714 105.151002 24.9450369 105.302709 24.7884614 105.472292 24.6463391 105.658785 24.5189107 105.845278 24.3919642 106.051338 24.291515 106.27769 24.218045 106.502835 24.144575 106.753102 24.1079604 107.028494 24.1079604 107.107004 24.1079604 107.192762 24.113019 107.286009 24.1224135 107.379255 24.1322898 107.455833 24.1472247 107.514293 24.1667364 107.514293 24.3625762 107.492552 24.5849133 107.448103 24.8347114 107.404137 25.0845095 107.327559 25.2972112 107.219576 25.4735392 107.180925 25.4639038 107.119324 25.4540275 107.035741 25.4441512 106.952157 25.4345158 106.871472 25.4294572 106.79272 25.4294572 106.135163 25.4294572 105.602499 25.6645613 105.194968 26.1345285 104.787438 26.6042549 104.495861 27.3290788 104.318548 28.3077958L103.715345 31.6850079C103.509043 31.7146368 103.307573 31.7290899 103.111417 31.7290899L102.742779 31.7290899 102.256979 31.6850079zM109.988465 24.1518015C110.096206 24.1322898 110.221582 24.1175958 110.364109 24.1077195 110.506394 24.0980841 110.631528 24.0930255 110.73951 24.0930255 110.847734 24.0930255 110.964896 24.0980841 111.092687 24.1077195 111.220479 24.1175958 111.338124 24.1322898 111.446106 24.1518015L110.650854 28.6746641C110.592393 28.9880559 110.56268 29.2670011 110.56268 29.5114997 110.56268 29.9031792 110.653269 30.1823653 110.835173 30.3485762 111.016834 30.5152688 111.259613 30.5983742 111.564234 30.5983742 111.829238 30.5983742 112.089169 30.5176777 112.344992 30.3558027 112.59985 30.1944096 112.839972 29.9571375 113.066082 29.6437458 113.291952 29.3305948 113.495355 28.9439739 113.677258 28.483883 113.858919 28.023792 114.00362 27.4950488 114.111603 26.8978941L114.597644 24.1518015C114.715772 24.1322898 114.843322 24.1175958 114.981017 24.1077195 115.117988 24.0980841 115.240465 24.0930255 115.348447 24.0930255 115.456671 24.0930255 115.577215 24.0980841 115.709596 24.1077195 115.841977 24.1175958 115.957207 24.1322898 116.055768 24.1518015L115.275009 28.5130301C115.167027 29.1003085 115.081269 29.6049632 115.017253 30.025549 114.95372 30.4466165 114.921591 30.8137257 114.921591 31.1271175 114.921591 31.2543049 114.924248 31.3545132 114.92908 31.4279833 114.934153 31.5014533 114.941158 31.5920262 114.951304 31.6997019 114.843322 31.7192136 114.727851 31.7339076 114.605374 31.7437839 114.482173 31.7534193 114.366702 31.7584779 114.259203 31.7584779 114.160642 31.7584779 114.050244 31.7534193 113.927525 31.7437839 113.804807 31.7339076 113.694168 31.7192136 113.596331 31.6997019 113.556714 31.5725144 113.537146 31.3472867 113.537146 31.0240186 113.537146 30.838296 113.549708 30.6622089 113.574348 30.4955162 113.598505 30.3293054 113.626045 30.1676713 113.655516 30.0110959 113.556714 30.216571 113.419984 30.4295136 113.242671 30.6499237 113.066082 30.869852 112.860264 31.0681006 112.62449 31.2444287 112.388958 31.4205158 112.126129 31.5676967 111.836485 31.684767 111.546841 31.802319 111.240287 31.8610951 110.916099 31.8610951 110.327148 31.8610951 109.868163 31.7045196 109.539385 31.3911278 109.210365 31.0779769 109.045613 30.5935565 109.045613 29.9376258 109.045613 29.7906858 109.056001 29.6268838 109.075326 29.4454971 109.094652 29.2645923 109.119534 29.090914 109.149006 28.9242213L109.988465 24.1518015zM120.164169 28.1459209C120.017052 28.0871449 119.859789 28.0139157 119.693105 27.9255108 119.525938 27.8378286 119.373748 27.7253351 119.236294 27.5880305 119.09884 27.4512076 118.983369 27.2772885 118.890364 27.0667547 118.796876 26.8562209 118.750494 26.6042549 118.750494 26.3103748 118.750494 25.9483242 118.823932 25.6228881 118.97129 25.3340666 119.118649 25.0452452 119.324709 24.8005057 119.589713 24.5996073 119.854958 24.3991907 120.171416 24.2450241 120.539812 24.1371075 120.908208 24.0296727 121.317913 23.9754735 121.769651 23.9754735 122.171867 23.9754735 122.554757 24.0197964 122.917839 24.1077195 123.281404 24.1958835 123.565974 24.2939239 123.772035 24.4013587 123.693524 24.7831619 123.551239 25.150512 123.345178 25.5026864 123.178253 25.4246395 122.947552 25.3439429 122.653077 25.2603557 122.358602 25.1772503 122.043834 25.135818 121.710225 25.135818 121.2882 25.135818 120.937197 25.209288 120.657699 25.3559872 120.378201 25.5026864 120.23809 25.757543 120.23809 26.1195936 120.23809 26.3448214 120.30428 26.5334346 120.436661 26.6849515 120.569284 26.8367092 120.80699 26.9812404 121.150746 27.1180633L121.474934 27.2647624C121.661427 27.3529264 121.854926 27.4461491 122.056396 27.5439485 122.257625 27.6419888 122.439528 27.7619497 122.601381 27.9038311 122.763717 28.0457126 122.895856 28.2169821 122.999248 28.4176395 123.101916 28.618297 123.154096 28.8654453 123.154096 29.1593254 123.154096 29.6290518 123.065439 30.0327755 122.888609 30.3704967 122.711537 30.7084588 122.469 30.987404 122.159789 31.2075732 121.850094 31.4279833 121.492086 31.5920262 121.084555 31.6997019 120.677266 31.8071367 120.23809 31.8610951 119.766543 31.8610951 119.373748 31.8610951 118.988442 31.8268893 118.610625 31.7584779 118.232566 31.6898256 117.920939 31.6019025 117.675502 31.4939858 117.69507 31.2788753 117.73203 31.0731592 117.7859 30.8773194 117.839771 30.6814797 117.920939 30.4955162 118.028921 30.3191882 118.284262 30.4271048 118.583327 30.51286 118.927324 30.5762128 119.27108 30.6400474 119.589713 30.6716034 119.884429 30.6716034 120.129624 30.6716034 120.360566 30.6499237 120.576531 30.6056008 120.792254 30.5615188 120.978989 30.4931074 121.13601 30.4001256 121.29279 30.3071439 121.418165 30.1823653 121.511653 30.025549 121.604658 29.8692144 121.651281 29.6731338 121.651281 29.4380297 121.651281 29.1347551 121.563349 28.9071185 121.386278 28.7553607 121.209689 28.603603 120.959421 28.4641304 120.635233 28.3367021L120.164169 28.1459209zM127.026723 25.3119052L125.833362 25.3119052C125.833362 25.1160654 125.848098 24.9276931 125.877569 24.7465474 125.907041 24.5656425 125.960911 24.3673939 126.039905 24.1518015L127.217806 24.1518015C127.266845 23.8974266 127.311294 23.6379932 127.350187 23.373742 127.389805 23.1092499 127.409131 22.8353633 127.409131 22.5511186L127.409131 22.3162555C127.60577 22.2186969 127.841301 22.1452269 128.116451 22.0958454 128.390876 22.0471866 128.626408 22.0226163 128.823288 22.0226163 128.83271 22.1105394 128.840198 22.1989443 128.844788 22.2868674 128.84962 22.3750315 128.85276 22.4682541 128.85276 22.5658126 128.85276 22.869569 128.813142 23.2465545 128.73439 23.6965283L128.6467 24.1518015 130.545691 24.1518015C130.545691 24.3673939 130.530955 24.5656425 130.501483 24.7465474 130.472736 24.9276931 130.422973 25.1160654 130.354367 25.3119052L128.469387 25.3119052 127.895172 28.498577C127.846133 28.7238047 127.801684 28.9562591 127.763032 29.19594 127.723173 29.4358617 127.703847 29.6536221 127.703847 29.8494618 127.703847 30.143101 127.779942 30.3464082 127.932374 30.4589016 128.083839 30.5713951 128.287483 30.6277623 128.543066 30.6277623 128.710475 30.6277623 128.862181 30.6154771 128.999635 30.5911477 129.137089 30.5665774 129.274785 30.5350214 129.412481 30.4955162 129.441227 30.5935565 129.466109 30.7012323 129.485677 30.8185434 129.505002 30.9360955 129.515148 31.0635238 129.515148 31.2003466L129.515148 31.4132893C129.515148 31.4867593 129.510317 31.5626381 129.500171 31.6409259 129.372863 31.6801902 129.205696 31.7165639 128.999635 31.7510105 128.793575 31.7852162 128.572779 31.802319 128.337489 31.802319 128.02248 31.802319 127.735735 31.7806394 127.47508 31.7363165 127.215632 31.6922344 126.991454 31.609129 126.805444 31.4867593 126.618951 31.3643895 126.474009 31.1981787 126.371341 30.9876449 126.267948 30.7771111 126.216494 30.5005748 126.216494 30.157795 126.216494 29.9718315 126.233645 29.7735829 126.267948 29.5630492 126.302251 29.3527563 126.33897 29.134996 126.378346 28.9095273L127.026723 25.3119052z"/>
    <path fill="#AAD037" d="M103.433914,6.97113843 C103.581756,6.91982986 103.123495,7.07905505 103.433914,6.97113843 Z M102.108896,8.13389183 C102.151896,8.05102728 102.232581,7.96286326 102.408928,7.86241408 C102.30626,7.95298696 102.288142,8.03416531 102.108896,8.13389183 Z M101.987627,8.1868866 C102.109863,8.19049988 101.837853,8.22398294 101.987627,8.1868866 Z M101.659815,7.97779815 C101.696776,7.95467316 101.703057,7.98044789 101.719242,7.98960153 C101.682282,8.01272652 101.676242,7.98695179 101.659815,7.97779815 Z M101.581305,8.45113779 L101.65595,8.40296072 L101.703057,8.39645682 C101.737843,8.42247243 101.550625,8.53159348 101.581305,8.45113779 Z M101.516805,7.99682809 C101.490716,8.01007678 101.47598,8.01923042 101.466075,8.02525256 C101.511491,7.99923694 101.60981,7.94455598 101.516805,7.99682809 Z M101.371863,8.01682157 C101.01941,8.19387227 101.486126,7.95804555 101.371863,8.01682157 Z M101.18392,8.31094254 L101.173049,8.29359879 L101.088258,8.32346857 C101.05323,8.36706881 101.002742,8.41235525 100.912153,8.4624594 C100.892585,8.42078624 100.982933,8.3639373 101.076904,8.30612483 L101.088258,8.32346857 C101.116039,8.30154801 101.123044,8.28059099 101.104443,8.26421078 C101.158072,8.23674986 101.19165,8.24325376 101.264846,8.18447775 C101.295526,8.21916523 101.268953,8.26083839 101.18392,8.31094254 Z M100.961675,9.03167139 C100.93486,8.97795396 101.059511,8.91122873 101.158072,8.84859855 C101.233442,8.89268056 101.023758,8.96036934 100.961675,9.03167139 Z M100.818906,8.39910656 C100.835333,8.41717296 100.7718,8.44559742 100.818906,8.39910656 C100.801271,8.38055839 100.867462,8.35285658 100.818906,8.39910656 Z M101.184162,8.13798688 C101.214841,8.22518736 100.954427,8.26180193 101.184162,8.13798688 Z M100.620093,8.25553891 C100.795715,8.2032668 100.510661,8.36249199 100.620093,8.25553891 Z M100.398814,9.53873497 C100.35678,9.45538865 100.714064,9.26942519 100.736772,9.16993956 C100.800305,9.20269996 100.567672,9.41612435 100.398814,9.53873497 Z M100.493751,9.67459429 C100.284551,9.82924266 100.634829,9.56980918 100.493751,9.67459429 Z M100.649806,9.51536909 C100.796198,9.42118294 100.530712,9.64713336 100.649806,9.51536909 Z M100.20918,9.80708121 C100.086945,9.87525175 100.318612,9.68928829 100.367168,9.64689247 C100.491819,9.57944459 100.259186,9.76540805 100.20918,9.80708121 Z M100.336005,9.75577264 C100.4766,9.65074664 100.125597,9.91090278 100.336005,9.75577264 Z M100.12149,9.90969835 C100.15531,9.88223742 100.162074,9.90849392 100.178501,9.91523871 C100.145889,9.94245875 100.138883,9.91644314 100.12149,9.90969835 Z M99.9105984,10.1438389 L99.8968288,10.1262542 C99.8492393,10.1599782 99.8154193,10.1575693 99.7499535,10.2245355 C99.7815993,10.158292 99.7528524,10.1180641 99.6458363,10.2324847 C99.6129827,10.200206 99.7596164,10.1231227 99.8014082,10.0722959 C99.7712118,10.1380576 99.8154193,10.1474522 99.9076995,10.0650694 C99.9893506,9.96847437 99.8253237,10.061697 99.8919974,9.96895614 C100.065204,9.82707469 99.8712223,10.1609417 100.031384,10.0125564 C100.043463,10.0429079 99.9610867,10.0971071 99.9105984,10.1438389 Z M99.6368982,10.2939104 C99.6697519,10.2664495 99.6779653,10.2917425 99.6953584,10.2980055 C99.6612969,10.3252255 99.653325,10.2996917 99.6368982,10.2939104 Z M99.4504052,9.28821425 C99.2339574,9.44840298 99.5982468,9.17957497 99.4504052,9.28821425 Z M99.5702245,10.3502776 C99.5562134,10.4569898 99.422383,10.3864104 99.5702245,10.3502776 C99.5508989,10.3341383 99.6112917,10.2987281 99.5702245,10.3502776 Z M99.2182553,8.72791501 C99.3706867,8.62867026 99.0887732,8.86642406 99.2182553,8.72791501 Z M99.4211751,10.4487997 C99.5711908,10.3538909 99.3020805,10.5803231 99.4211751,10.4487997 Z M99.3494285,10.4278427 C99.395327,10.3962867 99.4083718,10.4304924 99.3735856,10.4606031 C99.3197152,10.4955314 99.368271,10.4435002 99.3494285,10.4278427 Z M99.1885421,9.69844193 L99.2924177,9.61075968 C99.3791417,9.61557738 99.1740478,9.79046012 99.1885421,9.69844193 Z M98.8761905,9.66519976 C98.8273931,9.60690551 98.8003372,9.65267372 98.8008203,9.56764121 C98.8529997,9.52211388 99.0100209,9.50187952 98.9409316,9.44816209 C99.0022907,9.40889779 99.0112288,9.47465948 99.108582,9.36216604 C99.100127,9.35349416 99.12211,9.31928845 99.1419188,9.33301891 L99.108582,9.36216604 C99.0121951,9.46887823 98.9117015,9.57703573 98.8761905,9.66519976 Z M98.8075843,10.0224327 C98.9737853,9.94848089 98.7102311,10.143598 98.8075843,10.0224327 Z M98.6665067,9.84273223 C98.8196628,9.74517368 98.543547,9.97907332 98.6665067,9.84273223 Z M98.1932687,10.2083961 C98.2882062,9.98413191 98.540165,9.90247179 98.7691745,9.6760396 C98.56553,9.90439887 98.353672,10.0578428 98.1932687,10.2083961 Z M98.1758756,9.7449328 L98.2017237,9.77721143 L98.1314265,9.83695099 L98.1050953,9.80491324 L98.1758756,9.7449328 Z M97.9744052,8.72695147 C97.6284753,8.96470527 98.0886684,8.64673666 97.9744052,8.72695147 Z M97.8731869,8.59590986 C97.5248412,8.8363134 97.9876917,8.51569505 97.8731869,8.59590986 Z M97.6635031,8.71948402 C97.8248727,8.61349449 97.5318468,8.86112459 97.6635031,8.71948402 Z M97.654565,9.32266085 L97.6279921,9.29038221 L97.7502272,9.21378068 C97.7567496,9.26460748 97.7209971,9.29568169 97.654565,9.32266085 Z M98.2005159,8.93989408 C98.2065552,8.97193183 98.1224884,9.03046696 98.0688596,9.07864402 C98.0492923,9.03359847 98.1362579,8.96012845 98.2005159,8.93989408 Z M98.0710337,8.37405449 C98.0101578,8.5313526 97.5760543,8.75296708 98.0710337,8.37405449 Z M98.1734599,8.82764153 C98.1961676,8.86738761 98.1101682,8.94037586 98.0195791,9.01360499 C97.9942141,8.97482245 98.0823876,8.90038889 98.1734599,8.82764153 Z M97.3791738,8.82740064 C97.3936681,8.71562986 97.8214907,8.3901938 97.9587031,8.30684748 L97.9710232,8.32346857 C98.0125735,8.28492692 98.0792471,8.2377134 98.0688596,8.21290221 C98.2343358,8.10137231 97.9992871,8.3754998 97.9710232,8.32346857 C97.8195581,8.50774584 97.4893303,8.75441239 97.3791738,8.82740064 Z M98.340144,8.0900507 C98.4184131,8.04572781 98.3312059,8.12738793 98.2787849,8.17074728 C98.2942455,8.19628113 98.3080151,8.22181497 98.353672,8.18905457 C98.3302396,8.29335791 98.2367516,8.20423034 98.1198311,8.35984225 C98.0867358,8.30227066 98.2007574,8.20085795 98.340144,8.0900507 Z M98.2210494,8.73273272 C98.3802448,8.62987469 98.092292,8.87413239 98.2210494,8.73273272 Z M98.4114075,9.81623485 C98.5802658,9.74083775 98.3130881,9.93788193 98.4114075,9.81623485 Z M98.3708236,8.76982905 C98.3510147,8.75344885 98.4150311,8.7149072 98.3708236,8.76982905 C98.4754239,8.82378736 98.2744367,8.88328604 98.3708236,8.76982905 Z M98.7455005,8.39717948 C98.6648157,8.4754672 98.6029735,8.5132862 98.5500694,8.53568853 C98.5024799,8.59759606 98.6191588,8.61012209 98.4916092,8.69419107 L98.4896766,8.61349449 L98.2355437,8.82956861 C98.1966507,8.73008298 98.4486095,8.65059082 98.5500694,8.53568853 C98.5234966,8.5132862 98.7633768,8.29986181 98.7455005,8.39717948 Z M98.8257021,9.52042769 L98.7525061,9.58113078 L98.7283489,9.54764773 L98.799854,9.4874264 L98.8257021,9.52042769 Z M98.6367935,8.5706169 C98.6367935,8.53689296 98.6566023,8.49714688 98.7203771,8.44535654 C98.7201355,8.47835783 98.6988773,8.51786302 98.6367935,8.5706169 Z M98.7827025,8.60964032 C98.9387574,8.50774584 98.6534619,8.75007646 98.7827025,8.60964032 Z M98.9877964,8.32828628 C99.0206501,8.34611179 98.9819987,8.38393078 98.9392406,8.42295421 L98.8894769,8.43692555 C98.8836792,8.41283702 98.9464877,8.36634616 98.9877964,8.32828628 Z M98.9539764,8.84305819 C98.7326972,9.00830551 99.1054416,8.73152829 98.9539764,8.84305819 Z M99.1469918,8.86979646 C99.1668007,8.92351388 99.0955372,9.00493312 99.0179928,9.08635235 C98.9851391,8.99096177 99.0346612,8.98831203 99.1469918,8.86979646 Z M99.1199358,8.35044773 C99.0716216,8.45643726 99.0063974,8.4935336 98.915325,8.55134608 C98.9653303,8.4492107 99.0044648,8.37501803 99.1199358,8.35044773 Z M99.6731339,7.82724483 C99.683763,7.91155469 99.5221519,7.9621406 99.4557198,8.09294133 L99.4682815,8.02790229 C99.2230867,8.1786965 99.3929113,8.21217956 99.1791208,8.35382012 C99.1027843,8.24807147 99.4791522,8.01055855 99.6731339,7.82724483 Z M99.6632295,9.27062962 C99.6801394,9.2872507 99.6187804,9.32410616 99.6632295,9.27062962 C99.6030782,9.20077288 99.795852,9.14994608 99.6632295,9.27062962 Z M99.7736275,8.39188 C99.6835214,8.56290857 99.5617696,8.496906 99.7736275,8.39188 Z M99.7721781,8.47233569 C99.7840151,8.5034099 99.6726507,8.56868982 99.6914933,8.59590986 L99.6436622,8.60939944 L99.6211961,8.57519372 C99.690527,8.5050961 99.7216897,8.50726406 99.7721781,8.47233569 Z M99.7973015,8.66793457 C99.737875,8.80427565 99.6216792,8.83510897 99.4583771,8.98373521 C99.4777028,8.90472483 99.6987404,8.77055171 99.7973015,8.66793457 Z M99.4315627,8.70888507 C99.4885735,8.73321449 99.2554573,8.83848137 99.3136759,8.8625699 C99.2385473,8.9314631 99.2547326,8.81800612 99.2168059,8.80957513 C99.2929008,8.76621577 99.3772092,8.70912596 99.4315627,8.70888507 Z M99.3474959,8.51015469 C99.5025846,8.40922374 99.2204295,8.64890463 99.3474959,8.51015469 Z M99.3822822,8.31600113 C99.5525899,8.24036314 99.2808223,8.44246592 99.3822822,8.31600113 Z M99.5721571,8.42608571 C99.5905165,8.47426278 99.5062082,8.54652837 99.442675,8.56459477 C99.4363941,8.53159348 99.5221519,8.47402189 99.5721571,8.42608571 Z M99.5134553,8.42199066 L99.4670736,8.43499847 L99.4421918,8.40127453 C99.49727,8.34779799 99.5136969,8.36610527 99.5622527,8.32756362 C99.5646684,8.35430189 99.49727,8.4000701 99.5134553,8.42199066 Z M99.6463195,8.93266753 C99.6644373,8.83583163 100.141299,8.50630052 100.230439,8.40970551 C100.063755,8.59350101 99.722656,8.88593577 99.6463195,8.93266753 Z M100.019064,8.66889811 C100.05385,8.6411963 100.06158,8.66697103 100.078007,8.67371581 C100.044912,8.70238117 100.03694,8.67636555 100.019064,8.66889811 Z M99.9610867,8.82595533 C100.096367,8.75368974 99.8555201,8.98421698 99.9610867,8.82595533 Z M100.055783,8.88232249 C100.06762,8.91941883 100.023171,8.97145006 99.9407948,9.03432113 C99.8695313,9.01288233 99.9963561,8.93868966 100.055783,8.88232249 Z M100.035974,9.79142366 C100.127288,9.76275831 100.093951,9.723494 100.183332,9.694106 C100.216669,9.71482213 100.015682,9.8858507 100.035974,9.79142366 Z M99.8103463,8.84667147 C99.9420026,8.75441239 99.5322979,9.04347477 99.8103463,8.84667147 Z M100.072693,9.84176869 C100.215703,9.73650181 99.8622841,9.99762149 100.072693,9.84176869 Z M100.207973,9.02396306 C100.357747,8.92736805 100.085013,9.15909972 100.207973,9.02396306 Z M100.033075,9.00975082 C100.042013,8.94760241 100.139849,8.85967928 100.252663,8.76958817 L100.264742,8.78572748 C100.235512,8.84811678 100.125597,8.93122221 100.033075,9.00975082 Z M100.348809,8.25433449 C100.54424,8.12136579 99.9879011,8.50027839 100.348809,8.25433449 Z M99.9736484,8.51930833 C100.130428,8.34707533 100.287449,8.18544129 100.495201,8.06331243 C100.309191,8.23337746 100.076558,8.45571461 99.8444079,8.6558903 C99.839818,8.63059734 99.9062501,8.58531091 99.8919974,8.56170414 C99.8717054,8.54701014 99.8175935,8.60289553 99.7731444,8.63469239 C99.7741106,8.57206221 99.9813787,8.43234873 99.9736484,8.51930833 Z M99.885475,7.88987501 C100.041288,7.78990761 99.7581669,8.03055203 99.885475,7.88987501 Z M100.093951,8.03729682 C100.248073,7.93901561 99.967126,8.17749207 100.093951,8.03729682 Z M100.031384,7.68584515 C100.185506,7.58611863 99.9009355,7.82748571 100.031384,7.68584515 Z M100.135984,7.67669151 C100.172462,7.69885296 99.9893506,7.84121618 100.016648,7.75136596 L100.089844,7.69042197 L100.135984,7.67669151 Z M100.221984,8.14569521 C100.373932,8.04861843 100.094917,8.28468604 100.221984,8.14569521 Z M100.552695,8.48582527 C100.699328,8.37646334 100.339387,8.64625489 100.552695,8.48582527 Z M100.67807,8.09438664 C100.715997,8.14906761 100.465729,8.29143082 100.440364,8.31214696 C100.456791,8.23867694 100.622509,8.15966656 100.67807,8.09438664 Z M100.722519,8.16400249 L100.797648,8.11462101 C100.839923,8.14135928 100.764553,8.18375509 100.708025,8.22326028 L100.722519,8.16400249 Z M101.015062,8.12281111 C100.992354,8.06499863 101.182954,8.03801948 101.015062,8.12281111 C101.005157,8.204953 100.803687,8.23313658 101.015062,8.12281111 Z M101.090674,7.89999219 C101.249627,7.81158728 100.857557,8.0310338 101.090674,7.89999219 Z M100.898625,9.49200322 C101.024725,9.42335091 100.797165,9.64592893 100.898625,9.49200322 Z M101.389256,8.97145006 C101.546277,8.89918447 101.258082,9.08418439 101.389256,8.97145006 Z M101.734702,8.87148266 C101.88955,8.8001806 101.605462,8.98469875 101.734702,8.87148266 Z M102.097542,8.63734213 C102.008886,8.57904789 102.277271,8.54725103 102.097542,8.63734213 C102.086189,8.71972491 101.893656,8.74260901 102.097542,8.63734213 Z M102.579718,8.17411968 C102.632623,8.20736185 102.401922,8.27360531 102.452894,8.30612483 C102.310367,8.35815606 102.499517,8.21290221 102.579718,8.17411968 Z M97.0344517,9.17234841 C96.9090763,9.26364394 97.1402599,9.03167139 97.189782,8.97939928 C97.3132249,8.88834463 97.0825244,9.11983541 97.0344517,9.17234841 Z M97.0458056,9.33855928 C97.1516137,9.24750463 96.7247574,9.61581827 97.0458056,9.33855928 Z M96.9117336,9.77745231 L96.884436,9.74637811 L96.9523175,9.67483517 L96.9779241,9.70687292 L96.9117336,9.77745231 Z M96.5979326,10.0780772 C96.7274147,9.9843728 96.5013041,10.2524781 96.5979326,10.0780772 Z M97.0057047,9.29110487 L97.0325191,9.32241996 L96.9658455,9.39251759 L96.9373401,9.36168427 L97.0057047,9.29110487 Z M95.6777879,10.3644898 L95.7248943,10.3442555 C95.7376975,10.4288062 95.6434848,10.3974911 95.6094232,10.435551 C95.6004851,10.403995 95.6811699,10.3351018 95.7302088,10.2789755 C95.8019555,10.2252581 95.7253774,10.3155901 95.6777879,10.3644898 Z M95.5905807,10.4861369 C95.739147,10.3632854 95.4722108,10.6453621 95.5905807,10.4861369 Z M95.3956327,10.7804988 C95.1371516,10.8587865 94.9105578,11.3858435 94.7501545,11.3817485 C94.9938998,11.0630572 95.2480327,10.8098868 95.5480642,10.4413322 C95.591547,10.4786695 95.4782501,10.5839363 95.5169015,10.6234415 C95.4811489,10.6390991 95.3161558,10.7607462 95.3956327,10.7804988 Z M94.6759921,11.3762081 C94.6842056,11.4658175 94.4984373,11.5679528 94.6759921,11.3762081 C94.6462789,11.349229 94.5750154,11.4641313 94.5556897,11.3976469 C94.661981,11.2439621 94.8238337,10.9717617 94.9397879,10.9440599 C95.0569499,10.7718269 94.9856864,10.9804336 94.9397879,10.9440599 L94.633234,11.3333305 C94.6909696,11.3034608 94.7554691,11.244203 94.6759921,11.3762081 Z M94.6854134,11.5944502 C94.6216386,11.6614163 94.5887849,11.6226338 94.5037519,11.7584931 C94.6706776,11.6238382 94.4844262,11.8471389 94.4254828,11.9560191 C94.3428655,11.9430113 94.5680098,11.7618655 94.4443254,11.769333 L94.6897617,11.4593136 C94.7506376,11.4699125 94.6571496,11.5650622 94.6854134,11.5944502 Z M94.3066298,12.044424 C94.4353872,11.8974839 94.1126481,12.2621843 94.3066298,12.044424 Z M94.1819791,12.2655567 L94.1527489,12.2388184 L94.214108,12.1605307 L94.242855,12.1887143 L94.1819791,12.2655567 Z M94.3677473,11.8998928 C94.3957696,11.8702639 94.3902134,11.8577379 94.3839326,11.8478616 C94.5264596,11.7837861 94.1401872,12.2002768 94.0474239,12.340472 C94.1433277,12.1561948 94.2764334,11.989743 94.3677473,11.8998928 Z M93.9399247,12.4430892 C93.6898985,12.7109536 94.058053,12.3149382 93.9399247,12.4430892 Z M93.6785447,12.8065851 C93.594961,13.0123012 93.4000131,13.1209404 93.6785447,12.8065851 C93.6700897,12.7189029 93.8580321,12.6145995 93.6785447,12.8065851 Z M93.2828511,13.0477113 C93.1642396,13.1527373 93.3765807,12.8959536 93.4212714,12.8388637 C93.5401244,12.7338377 93.3280249,12.9906215 93.2828511,13.0477113 Z M93.343727,13.298232 C93.2444412,13.2707711 93.4599227,13.0939613 93.343727,13.298232 Z M94.1406704,12.0229852 C94.2969669,11.9071194 94.0599856,12.1723341 94.1406704,12.0229852 Z M94.0036995,12.0988641 C93.9940367,12.0362339 94.1793218,11.8432847 94.187052,11.9312079 C94.1022606,12.0677899 94.0573283,12.0663445 94.0036995,12.0988641 L94.0338959,12.1265659 C94.0152949,12.1511362 93.9998344,12.1747429 94.0177106,12.1790789 C93.9234979,12.1679981 93.8029538,12.4816308 93.6821682,12.474886 C93.830493,12.3098796 93.8399142,12.2713379 94.0036995,12.0988641 Z M94.4020504,11.6582848 C94.3578429,11.7006806 94.3203993,11.720915 94.2969669,11.6948994 C94.3556687,11.6052901 94.3759607,11.6402184 94.4020504,11.6582848 Z M94.4307974,11.6876728 C94.4868419,11.5139945 94.6576327,11.4805115 94.4307974,11.6876728 Z M95.1796681,10.6239233 C95.1361853,10.691853 95.1724209,10.7248542 95.0840059,10.8120547 C95.0371411,10.7831485 95.0852137,10.7132918 95.1796681,10.6239233 Z M95.2688079,10.6470483 C95.4178573,10.5229924 95.1506795,10.8055508 95.2688079,10.6470483 Z M95.3765486,10.4748153 C95.3432118,10.5080575 95.3333074,10.483728 95.3144648,10.4808374 C95.3475601,10.4459091 95.3569813,10.4719247 95.3765486,10.4748153 Z M95.5258396,10.3461825 C95.669816,10.210805 95.3134985,10.5453947 95.5258396,10.3461825 Z M96.4904334,9.2101674 C96.550343,9.26942519 96.2829237,9.43274543 96.4554056,9.39564909 L96.1775987,9.59967895 C96.1121329,9.67700314 96.1449866,9.71169062 96.1297676,9.76805779 C96.0599535,9.82057078 96.0995712,9.74469191 96.0874926,9.72228958 C95.9613925,9.8728429 95.9944877,9.8383963 95.8497866,9.97329207 C96.0604367,9.8892231 95.6401028,10.1358897 95.5995188,10.208637 C95.9539038,9.77143018 96.0746894,9.66158648 96.4904334,9.2101674 Z M93.0386226,13.1621318 C92.9188033,13.2714938 92.9659097,13.4526395 92.8692812,13.4083166 C92.856961,13.565133 92.7586416,13.4198791 92.770237,13.5193647 C92.6202213,13.6691954 92.865416,13.2358427 92.8692812,13.4083166 C92.9033427,13.3468909 92.8668655,13.331956 92.8787025,13.2866695 L93.207964,12.8470538 C93.2335705,12.8590981 93.0816223,13.0737269 93.1915372,12.9674965 C93.1364589,13.0665004 93.1014311,13.239456 93.0386226,13.1621318 Z M93.0465944,13.4319234 C93.0137408,13.4627567 92.9613198,13.4576981 92.9762972,13.5012984 C92.8533375,13.6243907 92.9907915,13.3856734 93.056982,13.3090719 C93.1069872,13.3158167 93.0258193,13.4068713 93.0465944,13.4319234 Z M92.5796373,13.6200548 C92.5508903,13.5851264 92.6931758,13.4379455 92.7320687,13.3565263 C92.77531,13.3933817 92.6371313,13.5844038 92.5796373,13.6200548 Z M92.485183,13.7987917 C92.4941211,13.7860248 92.4979863,13.7826524 92.5025761,13.7759076 C92.466582,13.8238438 92.3614985,13.9613893 92.485183,13.7987917 Z M93.1954023,12.4356217 C93.1316275,12.2862728 93.7039097,11.7572887 93.8522344,11.473044 C93.8701106,11.506768 93.8314592,11.5725297 93.7570553,11.6585257 C93.8923352,11.586501 93.9539358,11.4544959 94.1418782,11.2670871 C94.1266592,11.2456483 94.1167548,11.2230051 94.1744903,11.1606158 L94.2037205,11.1880767 L94.1418782,11.2670871 C93.6478651,12.0104592 92.9881342,12.6685578 92.3699535,13.5721186 C92.659839,13.125999 92.9924825,12.6172493 93.1954023,12.4356217 Z M92.2827463,14.2107056 C92.3569087,14.0683424 92.3926612,14.102789 92.4516046,14.0305234 C92.4702056,14.0738827 92.2854036,14.3431925 92.2827463,14.2107056 Z M92.2146232,14.3487329 C92.2411961,14.3082641 92.2542409,14.3323527 92.2718756,14.3323527 C92.2460275,14.371617 92.2327411,14.348492 92.2146232,14.3487329 Z M92.2624543,14.1304908 C92.3912118,13.9818645 92.1699326,14.3104321 92.2624543,14.1304908 Z M92.3143921,13.6542605 C92.3366167,13.7021967 92.183219,13.8664805 92.1334553,13.9609075 C92.1344216,13.8378151 92.1979548,13.8363698 92.3143921,13.6542605 Z M91.7300314,14.0196835 C91.6529702,14.0623202 91.9665296,13.6458295 92.0527705,13.5022619 C92.1312812,13.460107 91.8155476,13.8765977 91.7300314,14.0196835 Z M92.3346841,13.4107255 C92.3061787,13.4504715 92.2926507,13.4256604 92.2742913,13.426383 C92.302072,13.3854325 92.3156,13.4092802 92.3346841,13.4107255 Z M92.659839,13.0318129 C92.7900458,12.8819822 92.5675588,13.212236 92.659839,13.0318129 Z M92.7794167,12.7357648 C92.9055169,12.6854198 92.6383391,12.8359731 92.7794167,12.7357648 Z M92.8400511,12.789964 C92.9806455,12.6490461 92.7371417,12.9607517 92.8400511,12.789964 Z M93.089111,12.4731998 C93.2224583,12.3233692 92.8929552,12.6960188 93.089111,12.4731998 Z M93.185981,12.0870607 C93.2255987,12.0439422 93.2391267,12.0788706 93.2628007,12.0887469 L93.3558056,11.9704722 C93.4082265,11.9644501 93.2156943,12.1836557 93.1678632,12.2742286 C93.1202736,12.2426726 93.226565,12.124157 93.185981,12.0870607 Z M93.3123227,11.8620738 C93.3202946,11.8854397 93.2599018,11.9490334 93.2792275,11.9685451 C93.1864642,12.0721258 93.2297054,11.926872 93.3123227,11.8620738 Z M93.5741859,11.6929723 C93.5925453,11.7269371 93.5538939,11.7922171 93.4790069,11.8786949 C93.4019457,11.8779722 93.5227313,11.7654788 93.5741859,11.6929723 Z M95.7292426,9.08972475 C95.7495345,9.0921336 95.5599011,9.32001111 95.6584622,9.31254366 C95.0789329,9.67820757 93.9674638,11.1121978 93.51331,11.7047757 C94.3187083,10.5523804 94.8284236,10.0494118 95.7292426,9.08972475 Z M95.8826403,8.95892402 C95.9558363,8.9543472 95.9935214,8.7691064 96.0476334,8.84498527 C96.1916098,8.72719235 96.5633879,8.20639831 96.6967352,8.22157408 C96.4370462,8.43716644 96.1930592,8.78235509 95.7976072,9.16704893 C95.7372144,9.1364565 95.963325,8.98012193 95.8826403,8.95892402 Z M96.1121329,8.68744628 C96.2648059,8.56170414 95.9901394,8.85076652 96.1121329,8.68744628 Z M96.2718115,8.49016121 C96.2742272,8.52460781 96.2558678,8.56844893 96.195475,8.63059734 C96.1928177,8.59542809 96.2119018,8.55158696 96.2718115,8.49016121 Z M96.6670219,8.34129408 C96.8196949,8.21531107 96.5462363,8.50268724 96.6670219,8.34129408 Z M97.166108,7.68102744 C97.1047489,7.79544797 96.8264589,7.97924346 96.6805499,8.12112491 C96.7484314,7.98165231 97.0206822,7.79448443 97.166108,7.68102744 Z M94.8040249,10.3054729 C94.9393047,10.2067099 94.7040144,10.4844507 94.8040249,10.3054729 Z M93.6191182,11.6676794 C93.908762,11.2446847 94.3501126,10.6925756 94.5742907,10.4297697 C94.39891,10.7226863 93.8814645,11.3215272 93.6191182,11.6676794 Z M94.096946,11.2921392 C94.0295476,11.3627186 93.9976602,11.3224907 93.9116609,11.4617224 C93.8565827,11.3925883 94.042834,11.3311626 94.0382442,11.2360129 C94.1409119,11.1266509 94.0392105,11.3044243 94.096946,11.2921392 Z M95.1687974,10.0371267 C94.7639241,10.4777059 94.5213866,10.8024193 94.2344,11.1497759 C94.2037205,11.1333957 94.2501021,11.0452317 94.1906756,11.1064166 C94.1532321,11.0604075 94.417511,10.8489102 94.3795843,10.8026602 C94.4462579,10.7424389 94.4109885,10.8228946 94.4235502,10.8452969 C94.5713918,10.6831811 94.6151162,10.5738192 94.6317846,10.4878231 C94.7102953,10.4198934 94.7269637,10.4338648 94.707638,10.4950497 C94.8610357,10.3459416 95.0480118,10.1062608 95.1687974,10.0371267 Z M94.7388007,10.7393074 C94.8774625,10.6027254 94.6322678,10.912263 94.7388007,10.7393074 Z M94.4322468,11.0637799 C94.5713918,10.9259935 94.3264386,11.2367355 94.4322468,11.0637799 Z M94.3259555,11.1011171 C94.4832183,10.981638 94.2438213,11.2502251 94.3259555,11.1011171 Z M94.0938056,11.4275167 C94.2312596,11.2897303 93.9875142,11.6004724 94.0938056,11.4275167 Z M93.8133414,11.7823408 C93.9532111,11.6423864 93.7082579,11.9533693 93.8133414,11.7823408 Z M93.5964105,12.0579136 C93.7362802,11.9179592 93.4915686,12.2294239 93.5964105,12.0579136 Z M93.5046134,12.1761882 C93.6435169,12.0355112 93.4000131,12.3460124 93.5046134,12.1761882 Z M93.4123332,12.2932585 C93.5497872,12.1540268 93.3043509,12.4650097 93.4123332,12.2932585 Z M93.3939738,12.4784993 C93.533602,12.340472 93.2886488,12.6504914 93.3939738,12.4784993 Z M91.5225218,15.199058 C91.4993309,15.1535307 91.6534534,14.9897287 91.7012845,14.8960243 C91.6759195,15.0208029 91.6222907,15.0576584 91.5225218,15.199058 Z M91.2592092,14.2894751 C91.3807195,14.2290129 91.1261034,14.4005232 91.2592092,14.2894751 Z M91.5145499,14.8121962 C91.6442736,14.661402 91.4229944,14.9918967 91.5145499,14.8121962 Z M91.569145,14.4065454 C91.5749427,14.4595401 91.5201061,14.4838695 91.4838704,14.5325284 C91.477348,14.4790518 91.5329093,14.4537589 91.569145,14.4065454 Z M90.829454,15.1118575 C90.7671286,15.1788237 90.8275214,15.0725932 90.870038,15.0152625 C90.8997512,14.9644357 90.870038,14.9781662 90.8543358,15.0022547 C90.8478134,14.9049371 90.985509,14.854592 91.0516995,14.7069293 C91.094216,14.7625738 90.9137624,14.9694943 90.829454,15.1118575 Z M91.0314075,14.8825347 C91.1616144,14.7305361 90.9376779,15.0636805 91.0314075,14.8825347 Z M90.7622972,14.9957508 L90.8185833,14.9109592 C90.8265552,14.9292665 90.8424989,14.9066233 90.8627908,14.8813303 C90.9048242,14.888316 90.7577074,15.0913823 90.7622972,14.9957508 Z M90.3926933,15.2881856 C90.4192661,15.2041166 90.4216818,15.089937 90.3182894,15.2968575 C90.2963064,15.2884265 90.3296432,15.2144747 90.2859188,15.2720463 C90.357907,15.0964409 90.3499352,15.0176714 90.4924622,14.8541103 L90.4301368,15.064644 C90.4581591,15.148713 90.5180687,15.0412781 90.588366,14.9280621 C90.6255679,15.0003276 90.4721702,15.0949956 90.3926933,15.2881856 Z M90.3825473,15.3445528 C90.5023666,15.1855685 90.2994468,15.5341295 90.3825473,15.3445528 Z M90.3236039,15.365028 C90.1503974,15.7102167 90.1912229,15.4707767 90.3236039,15.365028 C90.3538003,15.3098653 90.3634632,15.3563561 90.3236039,15.365028 Z M90.148948,15.8663103 C90.1349368,15.8357179 90.1994363,15.7453859 90.2344642,15.677938 C90.2359136,15.7403273 90.2033015,15.8227101 90.148948,15.8663103 Z M90.13542,15.7299693 C90.247509,15.5596633 89.9687358,15.9821762 90.13542,15.7299693 Z M90.1262403,15.3457572 C90.1636838,15.3522611 90.0110108,15.6153078 90.0088367,15.5105227 C90.0518363,15.4295853 90.0817912,15.4317532 90.1262403,15.3457572 Z M89.9668033,15.8593247 C90.0871057,15.6981724 89.8841859,16.0481788 89.9668033,15.8593247 Z M89.6882717,16.0987647 C89.6341597,16.1368245 89.7679902,15.940503 89.6327103,15.9959066 L89.70953,15.8619744 C89.672328,15.8268052 89.7923889,15.7085305 89.8126809,15.6854055 C89.8380458,15.6974497 89.7568779,15.8277687 89.819928,15.7538169 C89.8090573,15.8256007 89.7737879,15.9123194 89.8694501,15.7885044 C89.8793545,15.8920851 89.7423836,15.9735043 89.6882717,16.0987647 Z M89.7445578,16.2021045 C89.8648602,16.0399887 89.6607326,16.3895132 89.7445578,16.2021045 Z M90.2016105,15.3373262 C90.3093512,15.2079708 90.1412177,15.5396699 90.2016105,15.3373262 Z M89.5851208,16.2767789 C89.4998462,16.3834911 89.4087738,16.5217593 89.3307463,16.5964337 C89.2862972,16.57909 89.3718134,16.2642529 89.4510488,16.3064078 C89.4836609,16.249318 89.4665093,16.2307698 89.5114416,16.1616357 C89.5921264,16.144292 89.5752164,16.188374 89.5851208,16.2767789 Z M89.1773486,16.7400014 C89.2983758,16.5776447 89.093765,16.9290963 89.1773486,16.7400014 Z M88.8372164,17.0052161 C88.7352733,17.1367395 88.8891542,16.8724883 88.9246651,16.8158802 C89.0268498,16.6845977 88.873452,16.9478854 88.8372164,17.0052161 Z M88.299962,18.4881061 C88.2255581,18.5018365 88.321945,18.3676634 88.359147,18.2840762 C88.3828209,18.3141869 88.359147,18.3869342 88.299962,18.4881061 Z M88.2052661,18.06198 C88.2328052,18.0969083 88.1042894,18.2679369 88.1620249,18.2780541 C88.0477617,18.4148769 88.1187836,18.1819408 88.2052661,18.06198 Z M80.5807961,23.4122836 C80.3730448,23.2670298 80.4467241,23.1663397 80.5807961,23.4122836 Z M90.7934599,14.440992 C90.8072295,14.4927823 90.6523823,14.6604385 90.7439378,14.6606794 L90.6419948,14.7758225 C90.6180792,14.6773004 90.6690507,14.5944359 90.7934599,14.440992 Z M90.8123025,14.5209659 C90.6306409,14.7613694 90.9359869,14.3576456 90.8123025,14.5209659 Z M91.1101597,14.0399179 L91.1125755,14.1085702 C91.131418,14.0721965 91.1676537,14.0242604 91.1541257,14.0117343 C91.2703214,13.8573268 91.1558167,14.1540975 91.1125755,14.1085702 C91.0195705,14.1695142 91.0388962,14.2357577 90.9417846,14.3639087 C90.965217,14.2757446 91.014256,14.1080885 91.1101597,14.0399179 Z M91.3754049,13.8614219 C91.4867692,13.7214675 91.1403561,14.159397 91.3754049,13.8614219 Z M91.5036792,13.7050873 C91.6348524,13.5516434 91.4106743,13.8874375 91.5036792,13.7050873 Z M95.5900975,9.68302527 C95.7164393,9.58329875 95.5125532,9.79792757 95.4664131,9.843214 C95.3386219,9.94462672 95.542508,9.72951614 95.5900975,9.68302527 Z M95.9331286,9.32121553 C96.0850769,9.1954734 95.812343,9.48236781 95.9331286,9.32121553 Z M96.4005689,8.79873529 L96.4701414,8.72622881 C96.5141074,8.7428499 96.4459843,8.80788893 96.3933218,8.86618318 L96.4005689,8.79873529 Z M96.5389892,8.65444499 C96.6899712,8.52870286 96.4186867,8.81487461 96.5389892,8.65444499 Z M97.0392831,8.16761577 C97.0388,8.2015806 97.0170586,8.24204934 96.9513512,8.29648942 C96.9518344,8.26300636 96.9735758,8.22181497 97.0392831,8.16761577 Z M97.2293997,8.00622262 C97.3931849,7.89758334 97.0938782,8.15268089 97.2293997,8.00622262 Z M94.8709401,10.803142 C95.0137087,10.6706551 94.7617499,10.9722435 94.8709401,10.803142 Z M95.0388321,10.6217553 C95.1844995,10.4861369 94.8257663,10.8233763 95.0388321,10.6217553 Z M97.0325191,8.78789545 C97.1581362,8.69105956 96.9559411,8.90159332 96.9102841,8.9461571 C96.784184,9.04419742 96.9866206,8.83294101 97.0325191,8.78789545 Z M98.9025218,8.12883324 C99.0404589,8.03151557 98.6128779,8.33430841 98.9025218,8.12883324 Z M98.8926173,7.7850899 C98.8580727,7.81471879 98.8503424,7.78798052 98.8331908,7.78219928 C98.8689434,7.75208861 98.8766736,7.77834511 98.8926173,7.7850899 Z M100.989214,6.45275324 C101.153724,6.40939388 100.809243,6.62980394 100.989214,6.45275324 Z M100.697879,7.61020716 C100.722519,7.63405481 100.468145,7.80941932 100.494234,7.7178829 C100.547863,7.70342978 100.612121,7.67331911 100.697879,7.61020716 Z M100.583374,7.3372841 C100.747159,7.24574769 100.342769,7.47266165 100.583374,7.3372841 Z M100.680003,7.22479066 C100.371516,7.38859268 100.826395,7.14746648 100.680003,7.22479066 Z M100.782187,7.30548724 C100.949596,7.22671775 100.641593,7.42617078 100.782187,7.30548724 Z M100.835333,7.12361883 C101.00395,7.04340402 100.694255,7.24454326 100.835333,7.12361883 Z M100.837265,7.39606012 C100.81335,7.33704322 101.008539,7.30741433 100.837265,7.39606012 L100.935827,7.38040258 C100.941383,7.39268773 100.943557,7.40593642 100.908529,7.42352105 L100.830985,7.47338431 C100.823979,7.44977755 100.793783,7.42785698 100.837265,7.39606012 Z M100.566464,7.74582559 C100.730008,7.66681521 100.42442,7.86458205 100.566464,7.74582559 Z M100.956118,7.59069545 L101.044534,7.55889859 C101.04864,7.61406133 100.869394,7.68801312 100.956118,7.59069545 Z M101.390222,7.33439348 C101.554007,7.25562398 101.250111,7.45363171 101.390222,7.33439348 Z M100.956602,7.76509642 C101.119421,7.68801312 100.816007,7.88457553 100.956602,7.76509642 Z M101.081494,7.70897014 C101.044534,7.73281779 101.03777,7.70583863 101.020618,7.69740765 C101.058545,7.67428266 101.064826,7.70078004 101.081494,7.70897014 Z M105.660718,5.91798785 C105.507803,6.06950471 104.698539,6.44311783 104.551423,6.45708918 C104.36493,6.51177014 104.193414,6.66449143 104.161527,6.65991461 L104.168532,6.56476491 C103.59166,6.71507734 102.568123,7.45748588 102.201901,7.57576056 C102.23862,7.61839726 101.999464,7.77400918 102.089087,7.64874881 C102.019756,7.7359493 101.912982,7.82820837 101.735669,7.92889843 L101.71441,7.89276563 C101.683731,7.90673698 101.64049,7.9409427 101.629136,7.92359895 C101.661023,7.90866406 101.70209,7.87566278 101.71441,7.89276563 C101.913948,7.74100789 102.246109,7.52710173 102.53696,7.25731018 C102.314715,7.43797416 101.850898,7.7523295 101.596765,7.86988153 C101.744607,7.74052612 102.020723,7.59310431 102.141025,7.46591686 C101.817561,7.62755091 100.91336,8.3376808 100.622992,8.42608571 C100.979309,8.18640483 101.50062,7.88216668 101.524777,7.7441394 C101.627686,7.72751831 101.827949,7.5340874 101.929167,7.45555879 C101.847516,7.41701714 101.772871,7.57479702 101.683248,7.56636604 C101.575507,7.56564338 101.287071,7.87277215 101.167493,7.85085159 C101.246004,7.75786986 101.313644,7.7850899 101.346498,7.7096928 C101.185128,7.74799356 100.923748,8.04548692 100.726867,8.08643742 C100.900316,7.94768748 101.244313,7.75208861 101.467283,7.55769416 C101.265813,7.6456173 101.260498,7.63381392 101.163628,7.58130093 C100.935827,7.73402221 100.924956,7.74823445 100.703677,7.87903517 L100.714547,7.89734245 C100.780496,7.89445183 100.696671,8.01898954 100.655604,8.05873561 C100.596661,8.08089706 100.560425,8.06740748 100.533852,8.03850125 C100.551245,7.96623565 100.700295,7.98117054 100.714547,7.89734245 C100.694255,7.91010938 100.660918,7.91083203 100.703677,7.87903517 C101.031489,7.59141811 101.580822,7.31054584 101.928926,6.98342358 C101.767073,7.16770085 102.14948,6.87598873 102.170255,6.85165932 C102.121216,6.87430254 102.054301,6.88273352 102.110346,6.83913328 C102.172188,6.80203694 102.25239,6.7355526 102.27558,6.75867759 C102.175328,6.82178954 102.23548,6.8027596 102.256496,6.820826 C102.388153,6.75602785 102.278238,6.72471276 102.332108,6.67027268 C101.973858,6.89260982 101.556181,7.20335187 101.24383,7.35486873 C101.277408,7.37245336 101.05009,7.52083871 101.050573,7.48036998 L101.24383,7.35486873 C101.118454,7.39846897 101.278374,7.22214093 101.124252,7.33294817 C101.070382,7.37895726 101.152757,7.34667863 101.156381,7.38714736 C100.969888,7.43893771 101.024242,7.59310431 100.763586,7.7161967 C100.785811,7.73281779 100.845237,7.71354696 100.746193,7.7768998 C100.748126,7.75690632 100.727834,7.740767 100.763586,7.7161967 L100.858041,7.60538946 C100.88099,7.52830616 100.698845,7.60538946 100.803204,7.51698455 L101.385391,7.13831284 C101.473322,7.04677642 100.666475,7.57985561 101.120387,7.23635316 L101.099612,7.20046125 C101.077387,7.22190004 100.97641,7.34282447 100.942591,7.30187396 C100.990422,7.27609924 101.009989,7.25273336 101.010714,7.23346254 C100.947664,7.26068258 100.822771,7.38473851 100.80562,7.34210181 C101.013854,7.16288314 101.280307,7.04244048 101.611501,6.79264241 C101.415828,6.79505127 101.135606,7.13542221 101.035354,7.09278551 C101.117488,7.03328684 101.459553,6.83648354 101.337559,6.87141191 C101.240689,6.91621658 101.051781,7.10266181 101.043567,7.01377513 C101.342149,6.80998616 101.430806,6.7502466 101.738568,6.53682221 C101.732287,6.52670503 101.757169,6.49538994 101.776736,6.51152926 C101.962263,6.34435485 102.051885,6.38915952 102.148514,6.21909449 C102.265676,6.23402938 102.40627,6.07938101 102.501449,5.98953078 L102.444439,5.97748652 C101.864426,6.42505143 101.106617,6.89357336 100.265225,7.44495984 C100.230439,7.34932837 100.203141,7.45748588 100.11376,7.46953014 C100.116175,7.52228402 100.205315,7.44471895 100.228023,7.47001191 L99.9127725,7.67693239 C99.8260484,7.75666543 99.7400491,7.82965368 99.7093696,7.79641151 L99.8910311,7.64272668 C100.355331,7.19154849 99.8260484,7.66416547 99.6030782,7.80676958 C100.44133,7.0487035 99.0583352,8.27456885 99.0356275,8.23289569 C99.0242736,8.18182801 99.2361316,8.06620306 99.1820196,8.02766141 L99.0960203,8.07318873 C99.0554363,8.13846865 99.0189591,8.17002463 98.9513191,8.19579936 C99.0965034,8.21097513 98.8894769,8.42921722 98.7817362,8.44728362 C98.8737748,8.34081231 98.9143588,8.28083187 98.8290841,8.27240089 C98.8766736,8.23337746 98.8964825,8.25072121 98.9513191,8.19579936 C98.9486619,8.16689312 99.0771777,7.98526559 99.0960203,8.07318873 C99.2168059,7.8703633 99.4656242,7.75208861 99.5583876,7.57238817 C99.7697624,7.48928274 99.9006939,7.23707581 100.205798,7.08652249 C100.17995,6.99980378 99.9929741,7.15734278 99.9108399,7.15469304 C100.157484,7.01835195 100.295421,6.84876869 100.44133,6.8338338 C100.454134,6.92777907 100.228023,6.93861891 100.274646,7.01690664 C100.629031,6.75795493 101.092365,6.52983654 101.20856,6.35880797 L101.287796,6.30725851 C101.288762,6.27401634 101.344323,6.23282495 101.338767,6.20030543 C101.068449,6.39638608 100.971579,6.34411396 100.659711,6.64281175 C100.731216,6.65606044 100.799339,6.49033135 100.838956,6.57464121 C100.813591,6.65533779 100.586273,6.75554608 100.607773,6.65052008 C100.051193,6.95138584 99.422383,7.53938688 99.0271725,7.80701046 C99.2385473,7.62947799 99.4530625,7.45146374 99.6023535,7.29272032 C99.6013872,7.18432193 99.8864412,7.05255767 99.6873866,7.24743388 C100.036699,6.87936113 100.571296,6.64329352 100.94718,6.28172467 C100.881956,6.39494076 101.155415,6.20271429 101.186819,6.12514922 C100.598835,6.44528579 100.342286,6.71796797 99.8190429,6.95499911 C99.8349866,6.95186761 99.848273,6.9535538 99.848273,6.9716202 L99.7289368,7.04942616 C99.8149362,7.04509022 99.6364151,7.20648338 99.6311005,7.1602334 C99.6233702,7.13518133 99.6755496,7.09278551 99.7289368,7.04942616 L99.7185493,7.03280507 C99.4182763,7.32644427 99.1266998,7.55793505 98.9554259,7.70559775 C98.949145,7.55745328 99.3438723,7.40714085 99.3636812,7.27874897 C99.0503633,7.5112033 98.8899601,7.6899402 98.6000746,7.8703633 C98.8165224,7.68367718 99.0771777,7.48518769 99.1692164,7.33607968 C98.7614442,7.67307823 98.4172052,7.9310664 98.1304602,8.13413272 C98.5189067,7.74630736 99.0078468,7.4586903 99.2479686,7.10651598 C99.5571797,6.94006423 99.8439247,6.6322128 100.254354,6.43468684 C100.228989,6.40626237 100.280444,6.36410744 100.251697,6.33664652 C99.3325185,6.97475171 98.6983941,7.50373586 97.9823771,8.17797384 C97.912563,8.20639831 97.8560354,8.20808451 97.758199,8.28757666 L97.6352393,8.44656097 C97.6729244,8.45884612 97.4535777,8.64529135 97.4487463,8.60409996 C97.3808648,8.65829915 97.3859378,8.69081867 97.313708,8.74622229 C97.2982475,8.72237465 97.2830285,8.69587726 97.2380962,8.73032386 C96.9607725,9.1545229 96.3781028,9.63605264 96.05633,10.0537478 L96.0217853,10.0893988 C96.0580209,10.1416709 95.8700786,10.2230901 96.0217853,10.0893988 C95.990381,10.0409808 95.8273205,10.3206487 95.7930173,10.2731943 C95.8804661,10.1828623 95.8232137,10.2173089 95.7992982,10.2069508 C96.008982,9.88657336 96.3865578,9.59967895 96.611219,9.35108531 C96.6160504,9.3758965 96.5525172,9.43154101 96.5691856,9.45370245 C96.7066396,9.11983541 97.2576635,8.71852048 97.4842573,8.41066905 C97.4724203,8.50798672 97.7398396,8.26348813 97.7209971,8.23819517 C97.4973021,8.40127453 97.3789322,8.42512217 97.2467928,8.50630052 C97.1376026,8.61975751 96.6556681,9.0921336 96.5380229,9.18945127 C96.5800563,9.05744612 96.9450704,8.78861811 96.9883116,8.65661296 L95.4565087,10.2707854 C95.4164079,10.366176 95.5461316,10.2678948 95.4451548,10.4027906 C95.3333074,10.2609091 94.943653,10.9180443 94.8356707,10.9103359 C94.9600799,10.729672 95.2361957,10.5191382 95.2917571,10.3847242 C95.2125218,10.4512085 95.1975444,10.437719 95.2154206,10.3765341 C94.784216,10.8197631 94.3146016,11.4306482 94.1000864,11.7794501 C94.3834494,11.4735258 94.5421617,11.1926535 94.8228674,10.8961237 C94.6259869,11.1129205 94.8059574,10.9864557 94.7122278,11.134841 C94.5561728,11.2849126 94.3150848,11.6423864 94.0355869,11.9921519 L94.0370363,11.9244631 C93.9261552,12.0237078 93.8157571,12.208226 93.8517512,12.2258106 C93.6969041,12.3773275 93.6857918,12.4486295 93.5137931,12.6560318 C93.5572759,12.7538312 93.6048655,12.5180045 93.6365113,12.5656998 C93.6737133,12.5895474 93.533602,12.7107128 93.4973663,12.77527 L93.4831136,12.695537 C93.4207882,12.7557583 93.3212609,12.9395538 93.2835758,12.9142608 C93.4389061,12.6880695 93.2048236,13.0166371 93.2057899,12.9135382 L93.3137722,12.8099575 L93.2835758,12.7829784 C93.2666658,12.8048989 93.2374357,12.8162205 93.2693231,12.7692479 L93.2835758,12.7829784 L93.3152216,12.743714 C93.2760871,12.695537 93.4567823,12.5943652 93.3152216,12.743714 C93.3727155,12.724925 93.6154946,12.4170736 93.6227417,12.3527572 C93.4345578,12.4115332 93.0301676,13.178512 92.87218,13.1488831 C92.9163876,13.0838441 92.9806455,12.9923077 93.0084262,13.0029066 L93.1463633,12.8603025 C93.1217231,12.8431997 93.0985322,12.8282648 93.1311444,12.7798468 C93.2355031,12.718662 93.3816537,12.4298405 93.301452,12.6637401 C93.4374566,12.4948795 93.5746691,12.3267416 93.5171751,12.3226465 C93.5852982,12.2653158 93.6548707,12.2527898 93.6869997,12.1402963 C93.693039,11.9129006 94.2150743,11.6568395 94.2438213,11.3670545 C94.4566455,11.200121 94.6846887,10.9182852 94.836637,10.6277775 C95.0313434,10.5906811 95.1125113,10.181417 95.36447,10.0987933 C95.3110828,10.158292 95.2255666,10.2307985 95.2407856,10.2604274 C95.3040773,10.1753948 95.4828399,10.0417035 95.4671378,9.99159936 C95.2511732,10.1965928 95.7079843,9.57245891 95.7046023,9.73891066 C95.7691018,9.70952266 95.7649951,9.68856563 95.808961,9.62978962 L95.7949499,9.61485473 C95.7649951,9.64038857 95.7268268,9.68663855 95.713782,9.6726672 C95.7698265,9.62810342 95.8751516,9.46719203 95.8976177,9.50717899 C95.9084884,9.52982221 95.8594494,9.58113078 95.808961,9.62978962 C95.9797519,9.55993288 96.0179201,9.22558406 96.0142966,9.41395638 C96.6187077,8.6674528 96.9117336,8.28107276 97.6328236,7.79761594 C97.3958422,7.99369658 97.3083935,8.04452338 97.2037931,8.21675638 C97.3596065,8.07945175 97.5151784,7.94214712 97.6081833,7.92793489 C97.6951489,7.77810423 97.7874291,7.69234905 97.9990455,7.54203662 C97.9789951,7.43219292 97.7166488,7.78701698 97.6591548,7.74919799 C97.9106304,7.44712781 98.2183921,7.34113827 98.3162285,7.13759018 C98.0985728,7.29368386 98.0980897,7.33318905 97.9625682,7.41027235 C97.9992871,7.31656797 98.2471391,7.15878809 98.3684079,7.03906809 C97.2552478,7.83230342 96.0944982,9.00372869 95.2526226,9.98027775 C95.2052746,9.8909093 95.1163764,10.0578428 95.0110514,10.0869899 C95.0484949,10.0077387 95.2432013,9.83285594 95.3333074,9.7743208 C95.2470664,9.83189239 95.1927129,9.97184676 95.2932065,9.87693795 C95.294656,9.813826 95.6338219,9.58594849 95.6584622,9.46189256 C95.5243902,9.53584435 95.4688288,9.70615026 95.3895935,9.68663855 C95.5084465,9.57727662 95.559418,9.49826624 95.5683561,9.43804491 C95.7451863,9.35903453 95.9976282,8.92206857 96.4682088,8.49112475 C96.565562,8.4706495 96.5305342,8.50919115 96.6025224,8.496906 C96.7721054,8.27456885 97.1793944,7.86241408 97.3936681,7.73040893 C97.3794154,7.69620322 97.296798,7.74341674 97.3552583,7.68199099 C97.4238645,7.57865119 97.9502481,7.24261618 97.8280131,7.22695863 C97.5260491,7.4784429 96.9991823,7.98068877 96.7061565,8.15292177 C97.1086141,7.78003131 97.3755502,7.63598189 97.510347,7.38787002 C97.469763,7.42328016 97.4071961,7.46326712 97.4601002,7.40400934 L97.510347,7.38787002 C97.5243581,7.45266817 97.9471077,7.08748604 97.8299457,7.1438532 C97.7007051,7.26742736 97.6214697,7.29777891 97.5630095,7.28934793 C97.6441774,7.22936748 97.67993,7.18408105 97.6521493,7.15806543 C97.5115548,7.2226227 97.3393146,7.43122938 97.2566972,7.46832571 C97.2736072,7.47699759 97.2537984,7.49626841 97.2289165,7.51698455 C97.2687758,7.53553272 97.3327921,7.52132048 97.2929329,7.59960821 C97.2194953,7.621047 97.0673054,7.70583863 97.1161028,7.61526575 C96.9107673,7.78003131 96.5561408,8.00501819 96.4885008,8.20230326 C96.3930802,8.14473167 96.2544183,8.50967292 96.1203463,8.61975751 C96.0014933,8.69828612 96.1331496,8.47209481 95.9964203,8.63107911 C95.9679149,8.74429521 95.866455,8.77031082 95.8981008,8.82402825 C95.6975967,8.94471179 95.5396092,9.2807468 95.2936897,9.43178189 C94.7991935,10.0267686 94.1102324,10.607784 93.8768746,11.0784739 C94.0049074,10.950082 94.2068609,10.5865861 94.281748,10.6318725 C94.2315011,10.7123282 93.3891424,11.6399775 93.5775679,11.5580765 C93.0664033,12.0894695 92.6342324,12.7244432 92.1808033,13.3471318 C92.4073971,12.8583755 93.0209879,12.2318328 93.29807,11.7794501 C92.8910226,12.2735059 92.4351777,12.9043845 92.1063993,13.3502633 C92.5801205,12.4956022 93.2178684,11.9114553 93.8647961,10.9960911 C93.8850881,10.969112 94.1017774,10.7542423 93.9913794,10.7698998 C93.394457,11.5884281 93.0412799,11.9377118 92.6436537,12.4823535 C92.6711928,12.4544108 92.7050128,12.4040658 92.7221643,12.4156282 C92.6936589,12.4438118 92.659839,12.4943977 92.6436537,12.4823535 C92.6013787,12.6206216 92.5941316,12.4915071 92.5035424,12.6278482 C92.5653846,12.6728938 92.3148753,12.9301593 92.2448196,13.0717998 C92.308836,12.871865 92.0194337,13.3076266 92.0324786,13.3531539 C92.0723378,13.2775159 92.0873152,13.4051851 92.0658154,13.4463765 C91.8273846,13.7886745 91.6966946,14.0073984 91.5710776,14.149039 C91.6184255,13.9707838 91.9703948,13.5880171 92.0194337,13.4073531 C91.8225532,13.4805822 91.7430763,13.9377825 91.5925774,13.9729518 C91.7928399,13.5552567 92.1204105,13.2257256 92.1969885,12.9631606 C92.0774108,13.1293714 91.9585578,13.3317151 91.7836602,13.5412853 C91.8655529,13.4087984 91.9812655,13.2546318 91.9368164,13.2064547 C91.8433283,13.3526721 91.8648282,13.4340913 91.7645761,13.4613114 C91.7976714,13.5196056 91.7215764,13.5468257 91.7428347,13.6378803 L91.6551444,13.6964155 C91.6106953,13.9175482 91.0954239,14.2615324 91.0166717,14.6149111 C91.0606376,14.5378278 91.0823791,14.5440909 91.1053283,14.5546898 C91.0388962,14.6801911 91.0166717,14.6156338 90.9596609,14.6994619 C90.9927561,14.7172874 90.9690822,14.7700413 90.9067568,14.8517014 C90.8922625,14.8232769 90.951689,14.7442666 90.9596609,14.6994619 L90.9439588,14.686695 C90.8444314,14.7384853 90.6654272,15.1446179 90.5845008,15.1173979 C90.7113257,14.9319162 90.8028812,14.8444748 90.8516786,14.6794684 C90.7656792,14.7820856 90.7019044,14.7847353 90.6175961,14.8856662 C90.7816229,14.6787458 90.7908026,14.6245466 90.9572452,14.3759529 L90.9615935,14.4431599 C91.0620871,14.3617407 91.0548399,14.2499699 91.1473617,14.2005884 C91.163547,14.2752629 90.8973355,14.5412002 90.9690822,14.5780557 C91.3007594,14.0697877 91.6679476,13.6891889 91.8616877,13.2098271 C91.6244648,13.5603153 91.4205787,13.7739805 91.2396419,13.8831016 C91.3703319,13.7238764 91.3799948,13.7130365 91.4077755,13.5593517 C90.8804255,14.1634921 90.6265342,14.6669424 90.1776949,15.2571114 C90.0890383,15.3170918 90.1668242,15.2325411 90.1552288,15.1756922 C90.0054547,15.3696048 89.9791234,15.5098001 89.8387705,15.6406008 C90.0767182,15.1648523 90.3670867,14.8449566 90.4419738,14.4942276 L90.3864124,14.5804645 C90.3216714,14.5903408 90.2777054,14.7249957 90.3202219,14.6777822 C90.1607849,14.9396245 89.8595457,15.5155813 89.948927,15.2132703 C89.6612157,15.6728794 89.4916327,15.9884392 89.1490848,16.4706916 C89.1911182,16.3798778 89.3276059,16.2170394 89.2457133,16.224025 C88.1260308,18.0590893 87.112398,19.9789453 86.092726,22.1194522 C85.4368602,23.5645231 84.820129,25.0828233 84.2587175,26.5900427 C84.2108864,26.7193981 84.16378,26.8441767 84.1157074,26.9728094 C83.9751129,26.8292418 83.8357264,26.6866377 83.707452,26.5505375 C83.1605349,25.9678359 82.6580668,25.3200953 82.292328,24.9580447 C81.9804596,24.6526021 81.6970966,24.4184616 81.4098684,24.1135008 C80.8885578,23.552238 80.1788216,22.7443087 79.7961728,22.1900315 C79.4362318,21.8966332 78.9970553,21.023424 78.4612504,20.5411716 C78.429363,20.6189775 78.4078632,20.7242444 78.2861113,20.6363213 C78.3895038,21.0805138 77.7128628,20.9636844 77.877856,21.5480722 C77.8206036,21.4509954 77.7887162,21.3681309 77.6923293,21.2488926 C77.6022232,21.2700905 77.8940412,21.5078443 77.8189126,21.535787 C77.6179254,21.6798365 77.5164655,21.712356 77.6104367,22.065253 C77.5527011,22.0006957 77.5147745,21.9997322 77.4908589,22.0411644 C77.4720164,21.9778116 77.3799777,21.8874796 77.3217591,21.8595369 C77.4717748,22.054654 77.2674056,21.9240942 77.4036517,22.1216201 C77.2674056,21.9354158 77.2896301,22.1712425 77.1328504,22.0322517 C77.2135352,22.1572711 77.2497709,22.2572386 77.2922874,22.3603375 C77.2193329,22.3463661 77.126328,22.2673557 77.0014357,22.0866918 C76.9792111,22.2006305 76.9777617,22.1994261 77.0545813,22.3757541 L76.8603581,22.3519065 C76.9028746,22.4405523 76.8726782,22.5046278 76.9142285,22.6428959 C76.6313486,22.4456109 76.7079267,22.8288594 76.4211817,22.6207345 C76.4231142,22.8324727 76.3006376,23.1232212 76.1071391,23.0478241 C76.1810599,23.2007863 76.0549597,23.1434556 76.1617342,23.3383318 C75.9962579,23.1567043 75.9665447,23.2400506 75.9834547,23.3665154 C75.9112249,23.3159295 75.8295738,23.2388462 75.7856079,23.274979 C75.7771529,23.4358904 75.9262023,23.6878564 75.7735293,23.7671077 C75.6882547,23.6355843 75.6440471,23.6353434 75.5703679,23.5413981 C75.6302776,24.153006 76.1972452,25.009835 77.0002278,25.9295351 L78.2090501,27.2864421 C79.1002062,28.3316435 80.0029578,29.5167992 81.0045119,30.6125865 L81.7449277,31.354995 C82.3507882,31.945164 82.6648308,32.4433148 83.7533506,33.2341413 C84.3935142,33.5559641 85.1573624,34.0449613 86.447111,33.1905411 C87.7148766,31.9747929 87.1640943,32.2469933 87.4612268,31.9008411 C87.7081126,31.4188296 87.85378,31.0500342 87.9835038,30.7021958 C89.67571,25.9748216 91.9817486,21.7282544 94.2517931,18.0586076 C94.9006534,17.1203593 95.6055581,15.7583937 96.3790691,14.8259267 C96.8508576,14.2422616 97.3506684,13.4928674 97.812311,12.9901397 C97.8876812,12.9198012 97.9492818,12.8933038 98.03818,12.7808104 C98.0700674,12.6292935 98.3386946,12.4992155 98.4370141,12.3021713 C98.5140753,12.1260841 98.9662966,11.8244957 98.9892458,11.5983044 C99.1924072,11.4552185 99.3330016,11.2897303 99.5018599,11.1044895 C99.4677984,11.1346002 99.4202088,11.1688059 99.4832589,11.0977447 C99.5165957,11.0765468 99.5281912,11.0736562 99.5274664,11.0772695 C99.6004209,10.9985 99.6755496,10.9163581 99.7697624,10.8301211 L99.7598579,10.8905833 C99.8316046,10.7992878 100.155793,10.5533439 99.9557722,10.6451212 C100.345427,10.294874 100.730008,9.86537545 101.223055,9.51223759 C101.106617,9.45900193 101.443126,9.27785618 101.277891,9.43756314 C101.44071,9.38432748 101.387565,9.26508926 101.484676,9.28171034 L101.544103,9.21787573 C101.532266,9.19402809 101.630585,9.13091614 101.651119,9.14777811 L101.544103,9.21787573 C101.584687,9.2479864 101.734702,9.09574688 101.781084,9.11477682 C101.762966,9.09117006 101.746056,9.06780419 101.785191,9.03697087 C101.83278,9.11092266 101.999948,8.8134293 101.985695,8.9577196 C102.115902,8.89123525 101.988594,8.85510245 102.134503,8.78693191 L102.130396,8.86377433 C102.273648,8.80909336 102.115419,8.78861811 102.205525,8.74068193 C102.297563,8.72454262 102.268816,8.68142414 102.361338,8.66456217 C102.562809,8.45667815 102.900767,8.286854 102.948356,8.13220563 C103.002951,8.12907412 102.977345,8.15219911 102.976862,8.18736837 L103.479813,7.85663284 C103.349123,7.89421095 103.221573,8.01344918 103.105377,8.06234889 C103.112141,8.04404161 102.952946,8.04211453 103.099821,7.95804555 C103.060204,7.96093618 102.848829,8.06957545 102.846172,8.1244973 C102.903424,8.07800644 102.921783,8.09438664 102.937969,8.11413924 C102.821048,8.15219911 102.689392,8.21747903 102.521258,8.33695815 C102.539135,8.35502455 102.542517,8.39284354 102.588415,8.36827324 C102.581168,8.35815606 102.606291,8.32780451 102.623684,8.34442559 L102.588415,8.36827324 C102.591072,8.47908048 102.304327,8.51641771 102.206008,8.56676274 C102.291041,8.49257006 102.360855,8.43837087 102.468354,8.42054535 C102.460865,8.39573416 102.456276,8.37068209 102.521258,8.33695815 C102.489612,8.33527195 102.459416,8.33262221 102.500483,8.3001027 L102.971064,7.99249215 C102.903424,7.94961457 102.651465,8.14521344 102.850761,7.94672394 C102.700021,8.02982938 102.665718,8.10040877 102.625134,8.16954286 C102.529713,8.06090358 102.357473,8.36225111 102.158901,8.3983839 C102.138126,8.59253746 101.892448,8.65613119 101.644596,8.80644362 C101.607394,8.75947099 101.877713,8.67732909 101.840994,8.62915203 C101.79268,8.65444499 101.782775,8.61734865 101.819736,8.59374189 L101.736152,8.62361167 C101.782775,8.66817545 101.640007,8.73682777 101.586378,8.79464024 C101.590001,8.77705561 101.636141,8.6674528 101.543136,8.72357907 C101.33925,8.87389151 101.405682,8.87605948 101.305914,9.00059718 C101.237307,9.04154769 101.246004,8.95531074 101.188268,8.97771308 C101.035112,9.09478334 101.032455,9.06274559 101.041876,9.1528367 C100.909495,9.27135227 100.889445,9.27761529 100.952253,9.17523903 C100.798856,9.29423638 100.827361,9.33518688 100.817457,9.37156056 C100.638452,9.4973027 100.565015,9.53199018 100.468628,9.56065553 C100.735806,9.26749811 101.22233,8.90207509 101.410514,8.75850744 L101.229819,8.80114414 C101.393604,8.70768064 101.679624,8.47329924 101.798236,8.38513521 C101.990043,8.21001159 102.259878,8.09799992 102.477051,7.89348829 C102.449028,7.84338414 102.627066,7.73619018 102.687459,7.73161336 C102.6691,7.71354696 102.677555,7.69379437 102.704128,7.66994672 C102.815975,7.54010954 102.983626,7.44833223 103.144995,7.38064346 C103.168911,7.209374 103.408791,7.15469304 103.544795,7.10458889 C103.871883,6.98053296 104.153313,6.78204346 104.511563,6.58981698 C105.11984,6.28967388 105.775464,5.90594358 106.393886,5.7744202 C106.211741,5.71395799 105.869193,5.89727171 105.660718,5.91798785 Z"/>
    <path fill="#AAD037" d="M102.392018 7.07825155C102.341529 7.20117532 102.125082 7.2180142 101.967819 7.42994344 102.270749 7.26925248 102.856318 6.78838237 103.189444 6.66810471 102.851486 6.67965136 102.621752 7.06886989 102.392018 7.07825155M100.323927 6.36386656C100.54279 6.22439396 100.663093 6.11455026 100.811176 6.04686149 101.113623 5.81103477 101.459553 5.61615855 101.93883 5.2890363L101.929409 5.27048813C101.619715 5.44994769 101.283931 5.67662076 100.832192 5.98350865 100.866496 5.92882769 100.831468 5.944967 100.800788 5.92979123 100.55511 6.08419871 100.643284 6.16489529 100.372966 6.25811791 100.328033 6.29810487 100.303152 6.33471944 100.323927 6.36386656M102.371243 6.44649022C102.221952 6.56051183 101.946077 6.6924097 101.876746 6.7938696 101.924819 6.7653642 101.972409 6.74024079 101.974341 6.78082475 101.896072 6.85112197 101.65595 6.9448516 101.723832 6.99485683 101.920954 6.83976813 102.04029 6.81971772 102.130155 6.67912328 102.082323 6.7066624 102.020481 6.75497664 102.003088 6.7368588 102.047054 6.62597762 102.441057 6.4969786 102.371243 6.44649022M102.019273 7.14886095C102.145132 7.14982724 101.867325 7.18799548 102.019273 7.14886095M101.651844 7.51363345L101.878437 7.36530874C101.841235 7.240658 102.143199 7.17640007 102.256979 7.01792936 102.231131 6.95826128 102.113003 7.03822134 101.998015 7.11286684 101.979414 7.09112543 102.123391 6.95536242 101.997049 7.01503051 101.993908 7.05247404 101.962021 7.03338992 101.919988 7.06358632 102.01106 7.16359679 101.647737 7.34525833 101.467525 7.55953198 101.654018 7.45710579 101.704506 7.388258 101.819977 7.35323018 101.867325 7.38221872 101.489508 7.56557126 101.651844 7.51363345M99.8929637 6.76927654C99.6463195 6.85310174 99.4900229 7.12148734 99.1950645 7.28817147 99.2610134 7.36064282 99.839818 6.84633775 99.8929637 6.76927654M96.1609303 8.04187364C96.017437 8.110963 95.7575064 8.43539312 95.6002435 8.6334815L95.6128052 8.64966677C95.7352818 8.44747168 96.0041506 8.27813027 96.1609303 8.04187364M96.4930907 9.0593732C96.5633879 9.06274559 96.7631673 8.85751131 96.7324877 8.80788893 96.4921244 8.95916491 96.2010311 9.37204233 95.864764 9.69097449 96.0640602 9.60184692 96.3290638 9.28821425 96.4930907 9.0593732M94.9678101 9.29857231C94.9199791 9.31230278 94.0413846 10.3143857 94.0239915 10.3018596 93.9981434 10.2789755 94.378618 9.95980249 94.1694173 10.0869899 94.1080583 10.1264951 93.961183 10.3801474 93.9471718 10.3678622L93.98993 10.4104989C94.2590403 10.0311045 94.6784079 9.68374793 94.9678101 9.29857231M91.9515522 12.2137664C92.1170285 11.9285581 92.7726527 11.1974712 92.9434435 10.8855247 92.6393054 11.3118918 92.0967365 11.8779722 91.9515522 12.2137664M92.2812969 11.9560191C92.4583686 11.7136885 92.9098651 11.1969895 92.9038259 11.1324322 92.6680524 11.4701534 92.3851725 11.6961038 92.2812969 11.9560191M91.5007804 12.8412726C91.5800157 12.7463638 91.6549028 12.6644628 91.7476661 12.5112597 91.7662671 12.4753678 91.767475 12.4493522 91.7445257 12.4423665L91.2843326 13.1272035C91.173693 13.2635445 91.1442213 13.3914546 91.2712877 13.1830889L91.5007804 12.8412726zM90.4071876 14.4014868C89.9974828 14.9540777 89.5341493 15.6603534 89.32978 16.1580225 89.7380354 15.4596959 90.0320275 14.9947873 90.4071876 14.4014868"/>
  </g>
</svg>
